<?xml version="1.0" encoding="UTF-8" standalone="no"?>
<!-- Svg Vector Icons : http://www.onlinewebfonts.com/icon -->

<svg
   version="1.1"
   x="0px"
   y="0px"
   viewBox="0 0 1000 1000"
   enable-background="new 0 0 1000 1000"
   xml:space="preserve"
   id="svg870"
   sodipodi:docname="details.svg"
   inkscape:version="1.1.1 (1:1.1+202109281949+c3084ef5ed)"
   xmlns:inkscape="http://www.inkscape.org/namespaces/inkscape"
   xmlns:sodipodi="http://sodipodi.sourceforge.net/DTD/sodipodi-0.dtd"
   xmlns="http://www.w3.org/2000/svg"
   xmlns:svg="http://www.w3.org/2000/svg"><defs
   id="defs874" /><sodipodi:namedview
   id="namedview872"
   pagecolor="#ffffff"
   bordercolor="#666666"
   borderopacity="1.0"
   inkscape:pageshadow="2"
   inkscape:pageopacity="0.0"
   inkscape:pagecheckerboard="0"
   showgrid="false"
   inkscape:zoom="1.914"
   inkscape:cx="500"
   inkscape:cy="500.26123"
   inkscape:window-width="1551"
   inkscape:window-height="1082"
   inkscape:window-x="3088"
   inkscape:window-y="745"
   inkscape:window-maximized="0"
   inkscape:current-layer="svg870" />
<metadata
   id="metadata824"> Svg Vector Icons : http://www.onlinewebfonts.com/icon </metadata>
<g
   id="g868"><g
     id="g836"><g
       id="g834"><rect
         x="154"
         y="225.5"
         width="437.1"
         height="70.8"
         id="rect826" /><path
         d="M805.1,758.2c33.9-59.9,24.1-136.1-25.2-185.3c-29.2-29.2-67.9-45.2-109.3-45.2c-41.4,0-80.2,16.1-109.3,45.2C532.1,602,516,640.8,516,682.2c0,41.3,16.1,80.1,45.2,109.3c29.2,29.1,67.9,45.1,109.2,45.1c26.9,0,53-6.9,76.2-19.9L919.9,990l58.5-58.5L805.1,758.2z M735.7,747.2c-34.6,34.6-95.4,34.6-130,0c-35.8-35.9-35.8-94.2,0-130.1c17.3-17.3,40.5-26.9,65.1-26.9c24.6,0,47.6,9.6,65,26.9s26.9,40.5,26.9,65.1C762.6,706.8,753,729.8,735.7,747.2z"
         id="path828" /><path
         d="M718,875.7H108.6c-9.7,0-17.5-7.9-17.5-17.4V97c0-9.7,7.8-17.5,17.5-17.5H718c9.7,0,17.4,7.8,17.4,17.5v388.3c25.2,5.5,48.8,16.3,69.6,31.7V97c0-48-39-87-87-87H108.6c-48,0-87,39-87,87v761.2c0,47.9,39,86.9,87,86.9H718c36.4,0,53.6-8.6,66.5-40.4L753,873.3C741.4,878.2,723,875.7,718,875.7z"
         id="path830" /><rect
         x="154"
         y="425.2"
         width="437.1"
         height="70.8"
         id="rect832" /></g></g><g
     id="g838" /><g
     id="g840" /><g
     id="g842" /><g
     id="g844" /><g
     id="g846" /><g
     id="g848" /><g
     id="g850" /><g
     id="g852" /><g
     id="g854" /><g
     id="g856" /><g
     id="g858" /><g
     id="g860" /><g
     id="g862" /><g
     id="g864" /><g
     id="g866" /></g>
<path
   style="fill:#ffffff;stroke:#000000;stroke-width:1.5674"
   d="M 99.268548,944.30324 C 69.316455,940.88976 43.2783,922.32173 30.29809,895.1198 27.129722,888.47999 24.947749,881.872 23.396674,874.21912 l -1.191867,-5.88056 V 477.53396 86.729363 l 1.189542,-5.868412 C 25.057716,72.655 27.216846,66.410136 31.119935,58.516196 35.431964,49.795182 40.158148,43.190492 47.021944,36.293648 60.246707,23.00521 74.812147,15.291554 94.043887,11.391474 98.212163,10.546172 117.5727,10.479947 409.35214,10.312916 c 223.94666,-0.1282 312.47424,-0.01685 316.61442,0.398247 19.17743,1.922728 36.48694,9.625466 50.56155,22.499949 13.26107,12.130331 22.24059,27.948924 26.62006,46.894891 l 1.16876,5.055961 0.14535,215.431816 c 0.0799,118.4875 -0.0334,215.3527 -0.25146,215.25601 -0.21824,-0.0967 -2.86547,-1.84569 -5.88271,-3.88666 -17.26876,-11.68116 -38.10705,-20.96946 -57.8604,-25.79023 l -4.83004,-1.17877 -0.13339,-196.26984 -0.13333,-196.269828 -1.70872,-3.47093 c -1.95737,-3.975904 -4.32028,-6.270105 -8.45554,-8.209702 L 722.3093,79.414838 H 413.27064 104.23197 l -2.57071,1.185538 c -3.920988,1.80825 -6.718841,4.396233 -8.696782,8.044436 l -1.794154,3.309211 V 477.53396 863.1139 l 1.178041,2.39059 c 2.430318,4.93182 7.146541,8.8103 12.084545,9.93804 1.03891,0.23725 145.54097,0.45036 321.11568,0.47351 l 319.22675,0.0423 4.16928,-1.07618 4.16928,-1.07622 15.55005,15.55271 15.55,15.55272 -3.08574,6.36217 c -9.75334,20.10962 -21.00365,28.58982 -42.97664,32.39478 -5.13548,0.88929 -20.42205,0.93741 -320.17874,1.00778 -173.13218,0.0408 -316.54911,-0.12706 -318.704282,-0.37267 z"
   id="path993" /><path
   style="fill:#ffffff;stroke:#000000;stroke-width:1.5674"
   d="m 154.12748,260.97179 v -35.00523 h 218.39081 218.3908 v 35.00523 35.00522 H 372.51829 154.12748 Z"
   id="path1032" /><path
   style="fill:#ffffff;stroke:#000000;stroke-width:1.5674"
   d="m 154.12748,460.55381 v -35.00522 h 218.39081 218.3908 v 35.00522 35.00523 H 372.51829 154.12748 Z"
   id="path1071" /><path
   style="fill:#ffffff;stroke:#000000;stroke-width:1.5674"
   d="m 833.26922,902.7576 -86.53185,-86.53185 -4.37705,2.36467 c -13.81724,7.46468 -32.26367,13.43458 -49.83158,16.12721 -8.86807,1.3592 -26.48921,1.8563 -35.59785,1.00422 -25.99901,-2.43211 -49.63796,-10.60963 -70.72562,-24.46641 -17.41383,-11.44269 -32.42658,-26.25601 -43.84344,-43.26104 -23.09659,-34.40159 -31.32808,-77.14923 -22.71296,-117.9526 4.8204,-22.83065 15.24921,-44.92842 30.04585,-63.66465 5.40164,-6.83982 17.92228,-19.35359 24.90519,-24.89154 56.37169,-44.70674 136.02972,-44.61623 192.38024,0.21859 7.46947,5.94303 20.6535,19.56922 26.50018,27.38893 25.81193,34.5225 36.18108,76.6634 29.134,118.40252 -2.66509,15.785 -7.6138,30.85061 -14.65605,44.61812 -1.56097,3.05165 -2.83811,5.76438 -2.83811,6.02828 0,0.26391 38.91039,39.38969 86.46755,86.94619 l 86.46755,86.46637 -28.86391,28.86742 c -15.87514,15.87708 -28.98234,28.86742 -29.1271,28.86742 -0.14475,0 -39.20253,-38.93934 -86.79504,-86.53185 z M 679.46708,772.96818 c 32.41285,-3.05633 58.61143,-20.46641 73.08633,-48.56902 6.72973,-13.06556 9.60996,-24.33311 10.08331,-39.44618 0.40709,-12.99775 -0.99434,-22.35524 -5.0829,-33.939 -9.3475,-26.48346 -30.51521,-47.25238 -57.22174,-56.1437 -11.36285,-3.783 -15.57152,-4.42473 -29.22445,-4.45607 -10.53614,-0.0242 -12.74631,0.12023 -17.93824,1.17212 -8.4833,1.71872 -16.06709,4.33299 -23.85905,8.22465 -18.01467,8.99734 -32.95133,24.1585 -41.53998,42.16433 -21.87561,45.86145 -2.79596,101.3594 42.09212,122.43551 15.13116,7.10446 32.76024,10.14568 49.6046,8.55736 z"
   id="path1110" /></svg>
