<?xml version="1.0" encoding="UTF-8" standalone="no"?>
<!-- Svg Vector Icons : http://www.onlinewebfonts.com/icon -->

<svg
   version="1.1"
   x="0px"
   y="0px"
   viewBox="0 0 1000 1000"
   enable-background="new 0 0 1000 1000"
   xml:space="preserve"
   id="svg858"
   sodipodi:docname="draw.svg"
   inkscape:version="1.1.1 (1:1.1+202109281949+c3084ef5ed)"
   xmlns:inkscape="http://www.inkscape.org/namespaces/inkscape"
   xmlns:sodipodi="http://sodipodi.sourceforge.net/DTD/sodipodi-0.dtd"
   xmlns="http://www.w3.org/2000/svg"
   xmlns:svg="http://www.w3.org/2000/svg"><defs
   id="defs862" /><sodipodi:namedview
   id="namedview860"
   pagecolor="#ffffff"
   bordercolor="#666666"
   borderopacity="1.0"
   inkscape:pageshadow="2"
   inkscape:pageopacity="0.0"
   inkscape:pagecheckerboard="0"
   showgrid="false"
   inkscape:zoom="0.807"
   inkscape:cx="499.38042"
   inkscape:cy="500"
   inkscape:window-width="1825"
   inkscape:window-height="1162"
   inkscape:window-x="940"
   inkscape:window-y="600"
   inkscape:window-maximized="0"
   inkscape:current-layer="svg858" />
<metadata
   id="metadata852"> Svg Vector Icons : http://www.onlinewebfonts.com/icon </metadata>
<g
   id="g856"><path
     d="M990,347.6v562.3c0,44.2-35.9,80.1-80.1,80.1H90.1C45.9,990,10,954.2,10,909.9V90.1C10,45.8,45.9,10,90.1,10h562.3l-82.6,82.5H92.5v814.9h814.9V430.2L990,347.6z M238.7,565.4l195.9,195.9l485.6-485.6L724.3,79.8C613.3,190.9,353.3,450.8,238.7,565.4z M971.8,224c20.8-20.8,20.8-54.6,0-75.5L851.4,28.1c-20.8-20.8-54.6-20.8-75.5,0C775,29,768.3,35.7,757,47l195.9,195.9L971.8,224z M182.7,621.4c-2.6,2.6-4.1,6.1-4.1,9.8v176.2c0,7.7,6.2,13.9,13.9,13.9h176.2c3.7,0,7.2-1.5,9.8-4.1l23.2-23.2L205.9,598.3C191.1,613,182.7,621.4,182.7,621.4z"
     id="path854" /></g>
<path
   style="fill:#ffffff;stroke:#000000;stroke-width:3.71747"
   d="M 336.73893,662.63734 239.7787,565.67121 482.03221,323.42009 724.28571,81.168956 821.56134,178.43866 918.83696,275.70836 676.8918,517.65592 C 543.82195,650.72708 434.66594,759.60347 434.32289,759.60347 c -0.34305,0 -44.25583,-43.63476 -97.58396,-96.96613 z"
   id="path981" /><path
   style="fill:#ffffff;stroke:#000000;stroke-width:3.71747"
   d="M 855.63897,144.36263 758.39469,47.112442 768.91234,36.467097 c 5.78471,-5.854941 12.79437,-12.235773 15.57703,-14.179628 14.22956,-9.940196 35.67581,-11.502763 51.94186,-3.784468 8.11589,3.851019 12.91038,8.352134 74.5028,69.94399 59.74767,59.747149 66.19505,66.586119 69.79467,74.033909 5.7522,11.90157 7.176,22.87266 4.51852,34.81751 -2.66214,11.96582 -8.18224,20.52972 -21.9819,34.10279 l -10.38209,10.21163 z"
   id="path1020" /><path
   style="fill:#ffffff;stroke:#000000;stroke-width:3.71747"
   d="M 70.920363,986.90948 C 49.22042,981.65151 29.080456,965.25152 19.083225,944.69845 9.8518963,925.71998 10.57587,963.56371 10.57587,500 10.57587,36.498429 9.8538528,74.301109 19.069448,55.301554 27.809688,37.282027 44.800713,22.123981 64.217906,15.023679 L 73.110285,11.771995 361.83395,11.45119 650.55762,11.130384 610.29216,51.414015 570.02669,91.697646 H 331.17196 92.317224 V 500 908.30235 H 500 907.68278 V 669.44773 430.59311 l 40.90658,-40.88515 40.90656,-40.88516 -0.32416,288.10409 -0.32418,288.10409 -2.88981,8.05452 c -7.54385,21.02636 -21.32026,37.38725 -39.38285,46.77119 -18.84152,9.7886 22.73224,8.96407 -447.1945,8.86934 -356.30944,-0.0719 -422.41614,-0.35209 -428.460057,-1.81655 z"
   id="path1059" /><path
   style="fill:#ffffff;stroke:#000000;stroke-width:3.71747"
   d="m 185.52267,818.38823 c -6.64095,-4.65151 -6.46443,-1.94659 -6.46443,-99.05737 0,-75.58668 0.28292,-90.49668 1.77052,-93.30813 0.97379,-1.84038 6.96821,-8.48397 13.32094,-14.76353 l 11.55042,-11.41738 97.71733,96.91924 97.71731,96.91924 -13.57922,13.32094 -13.57922,13.32094 h -92.84627 c -82.1295,0 -93.16497,-0.22322 -95.60738,-1.93395 z"
   id="path1098" /></svg>
