<?xml version="1.0" encoding="UTF-8" standalone="no"?>
<!-- Generator: Adobe Illustrator 19.0.0, SVG Export Plug-In . SVG Version: 6.00 Build 0)  -->

<svg
   version="1.1"
   id="Layer_1"
   x="0px"
   y="0px"
   viewBox="0 0 512 512"
   style="enable-background:new 0 0 512 512;"
   xml:space="preserve"
   sodipodi:docname="merge.svg"
   inkscape:version="1.1.1 (1:1.1+202109281949+c3084ef5ed)"
   xmlns:inkscape="http://www.inkscape.org/namespaces/inkscape"
   xmlns:sodipodi="http://sodipodi.sourceforge.net/DTD/sodipodi-0.dtd"
   xmlns="http://www.w3.org/2000/svg"
   xmlns:svg="http://www.w3.org/2000/svg"><defs
   id="defs920" /><sodipodi:namedview
   id="namedview918"
   pagecolor="#ffffff"
   bordercolor="#666666"
   borderopacity="1.0"
   inkscape:pageshadow="2"
   inkscape:pageopacity="0.0"
   inkscape:pagecheckerboard="0"
   showgrid="false"
   inkscape:zoom="3.7382812"
   inkscape:cx="256"
   inkscape:cy="256"
   inkscape:window-width="2560"
   inkscape:window-height="1403"
   inkscape:window-x="3840"
   inkscape:window-y="745"
   inkscape:window-maximized="1"
   inkscape:current-layer="Layer_1" />
<g
   id="g885">
	<g
   id="g883">
		<path
   d="M498.347,228.693l-99.84-71.68c-7.68-5.12-17.92-5.973-26.453-1.707S358.4,168.96,358.4,178.347v43.52h-76.8V153.6    c0-61.44-49.493-110.933-110.933-110.933h-28.16C128.853,16.213,104.96,0,76.8,0C34.133,0,0,34.133,0,76.8    c0,42.667,34.133,76.8,76.8,76.8c29.013,0,52.907-16.213,65.707-42.667h28.16c23.893,0,42.667,18.773,42.667,42.667v68.267    h-70.827C128.853,195.413,104.96,179.2,76.8,179.2C34.133,179.2,0,213.333,0,256c0,42.667,34.133,76.8,76.8,76.8    c29.013,0,52.907-16.213,65.707-42.667h70.827V358.4c0,23.893-18.773,42.667-42.667,42.667h-28.16    C128.853,374.613,104.96,358.4,76.8,358.4C34.133,358.4,0,392.533,0,435.2S34.133,512,76.8,512    c28.16,0,52.053-16.213,65.707-42.667h28.16c61.44,0,110.933-49.493,110.933-110.933v-59.733h76.8v33.28    c0,10.24,5.12,18.773,13.653,23.04c8.533,5.12,18.773,4.267,26.453-1.707l99.84-71.68C506.88,275.627,512,265.387,512,255.147    C512,244.053,506.88,234.667,498.347,228.693z M488.107,268.8l-99.84,71.68c-2.56,1.707-5.973,2.56-8.533,0.853    c-2.56-1.707-4.267-4.267-4.267-7.68v-43.52c0-5.12-3.413-8.533-8.533-8.533h-93.867c-5.12,0-8.533,3.413-8.533,8.533V358.4    c0,52.053-41.813,93.867-93.867,93.867h-34.133c-3.413,0-5.973,1.707-7.68,5.12c-10.24,23.893-29.013,37.547-52.053,37.547    c-33.28,0-59.733-26.453-59.733-59.733S43.52,375.467,76.8,375.467c23.04,0,41.813,13.653,52.053,37.547    c0.853,3.413,4.267,5.12,7.68,5.12h34.133c33.28,0,59.733-26.453,59.733-59.733v-76.8c0-5.12-3.413-8.533-8.533-8.533h-85.333    c-3.413,0-5.973,1.707-7.68,5.12c-10.24,23.893-29.013,37.547-52.053,37.547c-33.28,0-59.733-26.453-59.733-59.733    c0-33.28,26.453-59.733,59.733-59.733c23.04,0,41.813,13.653,52.053,37.547c0.853,3.413,4.267,5.12,7.68,5.12h85.333    c5.12,0,8.533-3.413,8.533-8.533v-76.8c0-33.28-26.453-59.733-59.733-59.733h-34.133c-3.413,0-5.973,1.707-7.68,5.12    c-10.24,23.893-29.013,37.547-52.053,37.547c-33.28,0-59.733-26.453-59.733-59.733c0-33.28,26.453-59.733,59.733-59.733    c23.04,0,41.813,13.653,52.053,37.547c0.853,3.413,4.267,5.12,7.68,5.12h34.133c52.053,0,93.867,41.813,93.867,93.867v76.8    c0,5.12,3.413,8.533,8.533,8.533h93.867c5.12,0,8.533-3.413,8.533-8.533v-52.053c0-3.413,1.707-5.973,4.267-7.68    s5.973-0.853,8.533,0.853l99.84,71.68c3.413,3.413,5.973,7.68,5.973,12.8C494.08,261.12,492.373,266.24,488.107,268.8z"
   id="path881" />
	</g>
</g>
<g
   id="g887">
</g>
<g
   id="g889">
</g>
<g
   id="g891">
</g>
<g
   id="g893">
</g>
<g
   id="g895">
</g>
<g
   id="g897">
</g>
<g
   id="g899">
</g>
<g
   id="g901">
</g>
<g
   id="g903">
</g>
<g
   id="g905">
</g>
<g
   id="g907">
</g>
<g
   id="g909">
</g>
<g
   id="g911">
</g>
<g
   id="g913">
</g>
<g
   id="g915">
</g>
<path
   style="fill:#448aff;stroke-width:0.267503;fill-opacity:1"
   d="M 69.550679,494.35604 C 55.23846,492.49879 43.165144,486.39339 33.29325,476.0209 25.060203,467.37037 19.602707,455.94242 17.771899,443.51933 c -0.627581,-4.25851 -0.629868,-12.46883 -0.0046,-16.58516 1.037657,-6.83146 2.718598,-12.25221 5.640649,-18.19018 3.04353,-6.18485 6.383708,-10.89511 11.082603,-15.62857 9.497142,-9.56699 22.186177,-15.64211 35.815071,-17.14713 4.229053,-0.46701 12.420705,-0.21141 16.237973,0.50667 15.412405,2.89928 28.188185,12.15401 37.190465,26.94062 1.84199,3.02556 4.62058,8.56953 5.19987,10.37506 0.41882,1.30536 2.09302,2.99472 3.70748,3.74103 1.23082,0.56897 1.4454,0.5758 20.77136,0.65976 13.09704,0.0569 20.62883,-0.0152 22.87147,-0.21884 25.56903,-2.3223 46.44985,-20.30607 52.52808,-45.24023 1.71668,-7.04216 1.6412,-4.6864 1.6412,-51.2211 v -42.29229 l -0.93626,-1.83378 c -0.62689,-1.22785 -1.31581,-2.1227 -2.08495,-2.70816 -2.36305,-1.79877 0.72333,-1.69061 -48.24406,-1.69061 -43.92299,0 -44.36073,0.005 -45.79949,0.5435 -2.3062,0.86286 -3.49895,2.37382 -6.20919,7.86572 -3.67755,7.45202 -7.80166,13.39743 -12.81951,18.48083 -8.60696,8.71947 -19.503653,14.01171 -31.699897,15.39588 -3.992722,0.45315 -11.81979,0.18061 -16.051992,-0.55892 -25.717824,-4.49397 -45.012654,-24.41537 -48.835002,-50.42085 -0.640953,-4.36075 -0.640953,-12.22441 0,-16.58516 1.908483,-12.98443 7.703444,-24.7229 16.629528,-33.68534 8.850922,-8.88696 19.758511,-14.55567 32.205474,-16.73727 4.663264,-0.81734 12.583479,-1.01911 17.017152,-0.43351 15.949081,2.10654 28.904057,10.48713 38.504117,24.90837 2.51214,3.77373 5.55211,9.4204 6.57179,12.20692 0.74548,2.0372 1.81962,3.26121 3.65117,4.16061 l 1.53268,0.75263 44.79448,0.07 c 49.49696,0.0773 46.37768,0.18112 48.74678,-1.62228 0.77542,-0.59025 1.46218,-1.48124 2.09092,-2.71271 l 0.93626,-1.83378 v -42.29229 c 0,-46.53469 0.0755,-44.17893 -1.6412,-51.22111 -5.50687,-22.59034 -23.39103,-39.813832 -45.97426,-44.27592 -5.73794,-1.133724 -7.99914,-1.232044 -28.33507,-1.232044 -21.90313,0 -21.05658,-0.07386 -23.41046,2.042478 -1.16534,1.047739 -1.69232,1.887756 -3.48051,5.548036 -4.03023,8.2495 -8.13465,14.18398 -13.52887,19.561 -7.8609,7.83586 -17.274428,12.79103 -27.947288,14.71112 -3.434851,0.61795 -11.948007,0.83811 -15.83024,0.4094 C 45.171548,133.25619 24.671902,115.23226 18.88049,90.817137 17.696897,85.827411 17.321101,82.499799 17.309578,76.907001 17.297198,70.897627 17.73925,67.259533 19.161406,61.66643 24.271524,41.56919 40.098289,25.281121 60.054336,19.581591 c 10.346453,-2.95499 22.035945,-3.074081 31.565309,-0.321583 12.860515,3.71468 23.711485,12.2984 31.673995,25.055898 1.75722,2.815401 5.09391,9.340731 5.64101,11.03173 0.47352,1.46356 2.28995,3.186068 4.05695,3.847188 1.42114,0.531717 2.09731,0.551157 22.9803,0.660646 22.85876,0.119846 24.15951,0.184004 31.68118,1.562584 26.50774,4.858372 49.56403,20.836495 63.45983,43.977976 7.06743,11.7698 11.66866,25.91868 12.88982,39.63642 0.1926,2.16361 0.29053,17.01736 0.29187,44.27168 10e-4,26.94889 0.0969,41.60009 0.27855,42.71982 0.48219,2.9717 1.91005,4.97135 4.43863,6.21612 l 1.29961,0.63976 h 49.62173 49.62174 l 1.21735,-0.56327 c 1.77975,-0.82348 3.07577,-2.08005 3.92135,-3.80194 l 0.74636,-1.51984 0.13375,-28.35528 0.13375,-28.35528 0.70835,-1.51084 c 0.8258,-1.76145 2.40955,-3.44288 4.01363,-4.26122 1.54234,-0.78685 4.31795,-0.63088 6.24563,0.35097 1.93599,0.98608 101.2171,72.32019 102.2548,73.47072 1.75591,1.94685 3.55864,4.97338 4.23328,7.10715 0.80614,2.54965 0.90892,6.28759 0.25089,9.12494 -0.54119,2.33349 -2.00587,5.09272 -3.42409,6.45042 -1.50847,1.44411 -101.5556,73.22481 -103.29306,74.10958 -1.95017,0.99305 -4.71711,1.15283 -6.26745,0.3619 -1.60408,-0.81834 -3.18783,-2.49978 -4.01363,-4.26121 l -0.70835,-1.51085 -0.13375,-24.07524 -0.13375,-24.07523 -0.61558,-1.33751 c -0.77883,-1.6922 -1.96037,-2.92899 -3.66447,-3.8358 l -1.33751,-0.71175 -49.20919,-0.0697 c -54.37464,-0.077 -50.74963,-0.18849 -53.13666,1.63415 -1.49472,1.1413 -2.53723,3.03456 -2.89909,5.26495 -0.18622,1.14777 -0.28148,14.10375 -0.28282,38.46626 -0.002,38.46856 -0.0424,40.02679 -1.21603,47.03581 -6.51042,38.88089 -36.57721,69.40625 -75.42549,76.57591 -7.34814,1.35613 -8.87271,1.43248 -31.96656,1.60058 l -21.80146,0.15871 -1.12765,0.6026 c -1.3225,0.70674 -2.9648,2.34552 -3.60397,3.59628 -0.24837,0.48602 -1.3028,2.60515 -2.34318,4.7092 -9.07358,18.35014 -23.00495,29.56133 -40.674419,32.7325 -3.967922,0.71212 -12.479837,0.90127 -16.585162,0.36854 z"
   id="path1076" /><path
   style="fill:#448aff;fill-opacity:1;stroke-width:0.267503"
   d="M 51.494253,414.28453 V 381.3047 l 3.143156,-1.24146 c 8.023132,-3.16889 15.175711,-4.42101 23.607105,-4.13256 5.390472,0.18439 7.91124,0.49389 11.490626,1.41078 3.678072,0.9422 6.13323,1.84389 9.775832,3.59034 12.171638,5.83568 21.933028,16.49006 28.524508,31.13396 1.51529,3.36647 2.58771,4.65072 4.61709,5.52912 1.35422,0.58618 1.52394,0.59249 19.28891,0.71666 19.92537,0.13927 24.98706,-0.0507 30.62026,-1.14935 17.43952,-3.40113 32.62754,-14.584 40.90727,-30.1198 3.5292,-6.62206 6.10702,-14.7799 6.70936,-21.23257 0.17422,-1.86626 0.27476,-18.28268 0.27491,-44.88245 l 2.2e-4,-41.93993 -0.69643,-1.3955 c -0.78752,-1.578 -2.27151,-3.24875 -3.42114,-3.85166 -1.48103,-0.77672 -9.88896,-0.91337 -51.25547,-0.83306 l -40.79415,0.0792 -1.52688,0.7498 c -0.85134,0.41806 -1.87884,1.19417 -2.32238,1.75419 -0.43752,0.55242 -2.07791,3.40498 -3.64531,6.33902 -4.52118,8.46328 -7.92711,13.27084 -12.96251,18.29688 -7.56835,7.5543 -16.941651,12.44931 -27.818264,14.52751 -2.655579,0.50741 -3.941841,0.5862 -9.237716,0.5659 -6.764949,-0.0259 -9.495801,-0.33871 -14.879252,-1.70417 -3.079582,-0.78112 -7.83617,-2.43559 -9.549491,-3.32158 l -0.850254,-0.43968 v -53.83818 -53.83817 l 3.143156,-1.24145 c 7.232299,-2.85654 14.523262,-4.22003 22.537095,-4.21467 11.84413,0.008 23.514696,4.15634 32.625026,11.59691 7.23398,5.90813 14.02615,15.07173 18.26516,24.64229 1.43483,3.23946 2.33978,4.37157 4.3491,5.44082 l 1.33752,0.71174 40.81037,0.0843 c 41.57197,0.0859 50.28033,-0.0548 51.77096,-0.83649 1.15265,-0.60447 2.6361,-2.27373 3.42443,-3.85337 l 0.69643,-1.3955 -2.2e-4,-41.93993 c -1.5e-4,-26.59978 -0.10069,-43.0162 -0.27491,-44.88245 -0.43142,-4.62165 -1.9995,-10.58414 -4.17436,-15.87258 -5.81098,-14.13018 -17.18474,-25.70908 -31.12836,-31.689804 -6.66693,-2.859592 -12.98328,-4.312209 -20.70193,-4.760969 -6.85414,-0.398496 -39.22431,-0.173457 -40.74616,0.283272 -1.95248,0.585965 -3.55774,2.432548 -5.52165,6.351741 -3.26005,6.50577 -6.01625,10.95704 -9.44303,15.25052 -9.5112,11.91677 -22.648551,19.13307 -36.715532,20.16773 -4.780025,0.35158 -10.820065,0.1772 -14.36682,-0.41478 -4.840499,-0.80792 -11.753351,-2.88278 -14.88314,-4.46711 l -1.003135,-0.5078 V 97.90052 65.270637 h 75.163857 75.16385 l 3.41504,1.357646 c 26.95223,10.714832 47.31245,33.206279 55.31385,61.103867 1.26563,4.41275 2.29536,9.21541 2.96794,13.84242 0.38463,2.64607 0.45995,8.32236 0.62215,46.88102 l 0.18455,43.87043 0.61285,1.56006 c 0.75742,1.92808 1.84531,3.19546 3.61346,4.20963 l 1.35834,0.7791 50.00541,0.002 c 49.59785,0.002 50.01448,-0.002 51.1197,-0.53692 1.46018,-0.70686 2.94868,-2.21282 3.82943,-3.87436 l 0.70899,-1.33752 0.13375,-28.48903 0.13375,-28.48902 0.79245,-1.4307 c 1.60555,-2.89861 3.91915,-4.57915 6.29637,-4.5735 2.6487,0.006 2.69001,0.0315 18.49369,11.28865 9.65711,6.87889 35.4175,25.34873 48.31509,34.64125 l 11.30198,8.14291 v 31.79225 31.79224 l -3.2769,2.37675 c -9.74379,7.06717 -58.43499,41.9168 -66.80878,47.81687 -4.32012,3.04389 -6.00113,3.85172 -8.02508,3.85654 -2.37722,0.006 -4.69082,-1.67489 -6.29637,-4.57352 l -0.79245,-1.43058 -0.13375,-24.20899 -0.13375,-24.20898 -0.64813,-1.31689 c -0.78183,-1.58855 -2.26599,-3.12464 -3.82144,-3.95519 l -1.14799,-0.61298 -44.81161,-0.0842 c -45.6973,-0.0859 -55.09253,0.0525 -56.60347,0.83388 -1.28773,0.66591 -2.9246,2.64932 -3.59374,4.35459 l -0.6213,1.58329 -0.18405,39.05539 c -0.18952,40.21642 -0.21504,41.12315 -1.33333,47.37233 -5.89302,32.93128 -28.2659,59.72993 -59.71087,71.52276 l -2.87927,1.07983 H 125.85636 51.494253 Z"
   id="path1152" /></svg>
