<?xml version="1.0" encoding="UTF-8" standalone="no"?>
<!-- Generator: Adobe Illustrator 19.0.0, SVG Export Plug-In . SVG Version: 6.00 Build 0)  -->

<svg
   version="1.1"
   id="Capa_1"
   x="0px"
   y="0px"
   viewBox="0 0 490.125 490.125"
   style="enable-background:new 0 0 490.125 490.125;"
   xml:space="preserve"
   sodipodi:docname="pin.svg"
   inkscape:version="1.1.1 (1:1.1+202109281949+c3084ef5ed)"
   xmlns:inkscape="http://www.inkscape.org/namespaces/inkscape"
   xmlns:sodipodi="http://sodipodi.sourceforge.net/DTD/sodipodi-0.dtd"
   xmlns="http://www.w3.org/2000/svg"
   xmlns:svg="http://www.w3.org/2000/svg"><defs
   id="defs984" /><sodipodi:namedview
   id="namedview982"
   pagecolor="#ffffff"
   bordercolor="#666666"
   borderopacity="1.0"
   inkscape:pageshadow="2"
   inkscape:pageopacity="0.0"
   inkscape:pagecheckerboard="0"
   showgrid="false"
   inkscape:zoom="3.9051262"
   inkscape:cx="245.0625"
   inkscape:cy="245.0625"
   inkscape:window-width="3840"
   inkscape:window-height="2123"
   inkscape:window-x="0"
   inkscape:window-y="0"
   inkscape:window-maximized="1"
   inkscape:current-layer="Capa_1" />
<g
   id="g949">
	<g
   id="g917">
		<g
   id="g915">
			<path
   d="M300.625,5.025c-6.7-6.7-17.6-6.7-24.3,0l-72.6,72.6c-6.7,6.7-6.7,17.6,0,24.3l16.3,16.3l-40.3,40.3l-63.5-7     c-3-0.3-6-0.5-8.9-0.5c-21.7,0-42.2,8.5-57.5,23.8l-20.8,20.8c-6.7,6.7-6.7,17.6,0,24.3l108.5,108.5l-132.4,132.4     c-6.7,6.7-6.7,17.6,0,24.3c3.3,3.3,7.7,5,12.1,5s8.8-1.7,12.1-5l132.5-132.5l108.5,108.5c3.3,3.3,7.7,5,12.1,5s8.8-1.7,12.1-5     l20.8-20.8c17.6-17.6,26.1-41.8,23.3-66.4l-7-63.5l40.3-40.3l16.2,16.2c6.7,6.7,17.6,6.7,24.3,0l72.6-72.6c3.2-3.2,5-7.6,5-12.1     s-1.8-8.9-5-12.1L300.625,5.025z M400.425,250.025l-16.2-16.3c-6.4-6.4-17.8-6.4-24.3,0l-58.2,58.3c-3.7,3.7-5.5,8.8-4.9,14     l7.9,71.6c1.6,14.3-3.3,28.3-13.5,38.4l-8.7,8.7l-217.1-217.1l8.7-8.6c10.1-10.1,24.2-15,38.4-13.5l71.7,7.9     c5.2,0.6,10.3-1.2,14-4.9l58.2-58.2c6.7-6.7,6.7-17.6,0-24.3l-16.3-16.3l48.3-48.3l160.3,160.3L400.425,250.025z"
   id="path913" />
		</g>
	</g>
	<g
   id="g919">
	</g>
	<g
   id="g921">
	</g>
	<g
   id="g923">
	</g>
	<g
   id="g925">
	</g>
	<g
   id="g927">
	</g>
	<g
   id="g929">
	</g>
	<g
   id="g931">
	</g>
	<g
   id="g933">
	</g>
	<g
   id="g935">
	</g>
	<g
   id="g937">
	</g>
	<g
   id="g939">
	</g>
	<g
   id="g941">
	</g>
	<g
   id="g943">
	</g>
	<g
   id="g945">
	</g>
	<g
   id="g947">
	</g>
</g>
<g
   id="g951">
</g>
<g
   id="g953">
</g>
<g
   id="g955">
</g>
<g
   id="g957">
</g>
<g
   id="g959">
</g>
<g
   id="g961">
</g>
<g
   id="g963">
</g>
<g
   id="g965">
</g>
<g
   id="g967">
</g>
<g
   id="g969">
</g>
<g
   id="g971">
</g>
<g
   id="g973">
</g>
<g
   id="g975">
</g>
<g
   id="g977">
</g>
<g
   id="g979">
</g>
<path
   style="fill:#ff5252;stroke-width:0.256074;fill-opacity:1"
   d="M 174.1287,315.97375 65.682896,207.50794 l 5.24951,-5.12068 c 5.646254,-5.50769 8.435965,-7.83556 12.124095,-10.11695 7.958449,-4.92289 17.858909,-7.34794 27.439289,-6.72105 2.95862,0.19359 8.15725,0.75713 54.28762,5.88485 19.96814,2.2196 21.11366,2.32044 23.35541,2.05583 2.86144,-0.33774 5.20314,-1.18445 7.46584,-2.69949 1.18963,-0.79654 10.89857,-10.35017 32.33516,-31.81794 l 30.63506,-30.6796 1.05151,-2.17663 c 1.42216,-2.94385 1.82482,-4.69552 1.82482,-7.93828 0,-3.24901 -0.40414,-5.00161 -1.83053,-7.93829 -1.02728,-2.11496 -1.31538,-2.4361 -10.17068,-11.336784 l -9.11347,-9.160165 24.06539,-24.065387 24.06539,-24.065387 80.02252,80.022833 80.02253,80.02284 -24.07059,24.09123 -24.07059,24.09123 -8.19436,-8.30543 c -4.50689,-4.56799 -8.7179,-8.71981 -9.3578,-9.22628 -4.14891,-3.28378 -10.80175,-4.36065 -16.2552,-2.63115 -4.26071,1.35123 -2.78613,-0.0126 -35.84468,33.15316 -16.76002,16.81439 -30.87032,31.16091 -31.35622,31.88117 -1.32192,1.95951 -2.27625,4.66792 -2.59859,7.37493 -0.27568,2.31516 -0.16232,3.47712 3.86737,39.64379 3.72336,33.41731 4.15052,37.69435 4.14313,41.48393 -0.0184,9.43942 -2.50975,17.56707 -7.84966,25.60845 -2.04304,3.07662 -4.31852,5.64954 -9.90594,11.20086 l -4.44472,4.41599 z"
   id="path1103" /></svg>
