<?xml version="1.0" encoding="UTF-8" standalone="no"?>
<!-- Generator: Adobe Illustrator 18.0.0, SVG Export Plug-In . SVG Version: 6.00 Build 0)  -->

<svg
   version="1.1"
   id="Capa_1"
   x="0px"
   y="0px"
   viewBox="0 0 512 512"
   style="enable-background:new 0 0 512 512;"
   xml:space="preserve"
   sodipodi:docname="target1.svg"
   inkscape:version="1.1.1 (1:1.1+202109281949+c3084ef5ed)"
   xmlns:inkscape="http://www.inkscape.org/namespaces/inkscape"
   xmlns:sodipodi="http://sodipodi.sourceforge.net/DTD/sodipodi-0.dtd"
   xmlns="http://www.w3.org/2000/svg"
   xmlns:svg="http://www.w3.org/2000/svg"><defs
   id="defs863" /><sodipodi:namedview
   id="namedview861"
   pagecolor="#ffffff"
   bordercolor="#666666"
   borderopacity="1.0"
   inkscape:pageshadow="2"
   inkscape:pageopacity="0.0"
   inkscape:pagecheckerboard="0"
   showgrid="false"
   inkscape:zoom="2.3320312"
   inkscape:cx="256"
   inkscape:cy="256"
   inkscape:window-width="2560"
   inkscape:window-height="1403"
   inkscape:window-x="3840"
   inkscape:window-y="745"
   inkscape:window-maximized="1"
   inkscape:current-layer="Capa_1" />
<g
   id="g828">
	<circle
   cx="256"
   cy="256"
   r="64"
   id="circle824" />
	<path
   d="M480,224h-2.556C463.344,126.109,385.891,48.656,288,34.555V32c0-17.672-14.328-32-32-32s-32,14.328-32,32v2.555   C126.109,48.656,48.656,126.109,34.556,224H32c-17.672,0-32,14.328-32,32s14.328,32,32,32h2.556   C48.656,385.891,126.109,463.344,224,477.445V480c0,17.672,14.328,32,32,32s32-14.328,32-32v-2.555   C385.891,463.344,463.344,385.891,477.444,288H480c17.672,0,32-14.328,32-32S497.672,224,480,224z M288,412.773V384   c0-17.672-14.328-32-32-32s-32,14.328-32,32v28.773C161.4,400.016,111.982,350.594,99.225,288H128c17.672,0,32-14.328,32-32   s-14.328-32-32-32H99.225C111.982,161.406,161.4,111.984,224,99.227V128c0,17.672,14.328,32,32,32s32-14.328,32-32V99.227   c62.6,12.758,112.018,62.18,124.775,124.773H384c-17.672,0-32,14.328-32,32s14.328,32,32,32h28.775   C400.018,350.594,350.6,400.016,288,412.773z"
   id="path826" />
</g>
<g
   id="g830">
</g>
<g
   id="g832">
</g>
<g
   id="g834">
</g>
<g
   id="g836">
</g>
<g
   id="g838">
</g>
<g
   id="g840">
</g>
<g
   id="g842">
</g>
<g
   id="g844">
</g>
<g
   id="g846">
</g>
<g
   id="g848">
</g>
<g
   id="g850">
</g>
<g
   id="g852">
</g>
<g
   id="g854">
</g>
<g
   id="g856">
</g>
<g
   id="g858">
</g>
<path
   style="fill:#448aff;stroke-width:0.428811;fill-opacity:1"
   d="m 250.75281,511.37218 c -5.09003,-0.93095 -10.60406,-3.47706 -14.73181,-6.80244 -7.08002,-5.70378 -11.75299,-15.40383 -11.75299,-24.39659 v -2.91827 l -7.07957,-1.19218 C 188.11486,471.16671 158.12339,459.13008 132.39001,442.0301 88.176061,412.64966 55.647312,368.1991 41.127589,317.31993 39.13155,310.32553 36.785139,300.18586 35.818748,294.37856 34.642453,287.30989 35.232641,288.111 30.961051,287.78482 16.908547,286.71175 6.1012098,278.55336 1.7948844,265.76747 0.78112971,262.75754 0.67154117,261.80466 0.67154117,256 c 0,-5.80466 0.10958854,-6.75754 1.12334323,-9.76747 4.3063254,-12.78589 15.1136626,-20.94428 29.1661666,-22.01735 4.27159,-0.32618 3.681402,0.47493 4.857697,-6.59374 0.966391,-5.8073 3.312802,-15.94697 5.308841,-22.94137 C 64.069995,114.28662 130.91696,52.812693 212.90452,36.710239 c 3.53769,-0.694806 7.54171,-1.397766 8.89783,-1.562134 l 2.46566,-0.298849 v -2.970344 c 0,-9.076459 4.6319,-18.71177 11.75299,-24.4486466 3.17007,-2.5538642 7.27228,-4.7092187 11.40279,-5.9911756 4.61274,-1.43162556 12.53968,-1.43162556 17.15242,0 4.13051,1.2819569 8.23272,3.4373114 11.40279,5.9911756 7.09764,5.7179836 11.75299,15.4020796 11.75299,24.4486466 v 2.970344 l 2.46566,0.298849 c 1.35612,0.164368 5.36014,0.867328 8.89783,1.562134 62.26328,12.228582 117.17652,51.191756 149.51047,106.083731 13.50591,22.92848 23.41204,49.80942 27.57532,74.82747 1.17627,7.06867 0.5861,6.26756 4.8577,6.59374 14.05247,1.07307 24.85983,9.23146 29.16616,22.01735 1.01139,3.00296 1.12421,3.97624 1.13206,9.76747 0.008,5.95023 -0.0811,6.68919 -1.18987,9.86265 -0.65916,1.88676 -1.98955,4.78124 -2.9563,6.43216 -2.09444,3.57657 -7.30715,8.84333 -10.78991,10.90178 -4.6508,2.74881 -11.98805,4.74981 -17.41649,4.74981 -1.86979,0 -1.64852,-0.50773 -2.80335,6.43216 -0.96075,5.77341 -3.3051,15.91611 -5.30255,22.94137 -13.2261,46.51773 -41.82371,88.02265 -80.87537,117.37789 -23.15999,17.40946 -49.94631,30.33278 -78.04355,37.65288 -6.72513,1.75212 -17.54528,3.99009 -21.76215,4.50119 l -2.46566,0.29883 v 2.97038 c 0,9.04657 -4.65535,18.73066 -11.75299,24.44864 -3.11674,2.5109 -7.25798,4.70019 -11.18838,5.9148 -3.36998,1.04141 -10.67245,1.50315 -14.03781,0.88764 z m -25.4888,-135.56751 c 4.89128,-16.46148 20.72549,-26.22209 37.07903,-22.85643 6.27592,1.29162 11.30599,4.03419 15.99026,8.71846 4.68427,4.68427 7.42684,9.71434 8.71846,15.99026 0.55012,2.67302 0.68023,6.37548 0.68023,19.35712 V 413.066 l 3.7521,-0.83204 c 14.14525,-3.13676 28.72017,-8.74917 42.98827,-16.55363 5.02507,-2.74864 16.20483,-10.33687 21.77085,-14.77689 6.33327,-5.05207 19.01305,-17.59054 23.75443,-23.4897 12.71608,-15.8212 21.82026,-32.35957 28.03096,-50.92011 1.62789,-4.86491 4.91612,-17.01725 4.91612,-18.16853 0,-0.17025 -7.57387,-0.39227 -16.83082,-0.49337 -18.32975,-0.20021 -19.38698,-0.32066 -24.94818,-2.84222 -9.04793,-4.10253 -15.79325,-12.22768 -18.11076,-21.81552 -0.90696,-3.75222 -0.90696,-10.59576 0,-14.34798 2.31751,-9.58784 9.06283,-17.71299 18.11076,-21.81552 5.5612,-2.52156 6.61843,-2.64201 24.94818,-2.84222 9.25695,-0.1011 16.83082,-0.32312 16.83082,-0.49337 0,-0.17025 -0.66352,-3.00092 -1.4745,-6.29038 -12.55345,-50.91904 -50.1648,-93.02536 -99.59151,-111.49379 -6.5111,-2.4329 -14.31543,-4.7766 -20.39462,-6.124687 L 287.73199,98.934 v 16.05192 c 0,18.94041 -0.18343,20.36484 -3.49372,27.12932 -1.83557,3.75096 -2.74464,5.02915 -5.67109,7.97384 -4.88633,4.91678 -9.82688,7.64609 -16.22414,8.96268 -7.12747,1.46688 -13.50321,0.59006 -20.45828,-2.81349 -3.75096,-1.83557 -5.02915,-2.74464 -7.97384,-5.67109 -4.91678,-4.88633 -7.64609,-9.82688 -8.96268,-16.22414 -0.55012,-2.67302 -0.68023,-6.37548 -0.68023,-19.35712 V 98.934 l -3.7521,0.832043 c -22.73685,5.041987 -45.77822,16.189417 -64.75912,31.330517 -6.33327,5.05207 -19.01305,17.59054 -23.75443,23.4897 -12.71608,15.8212 -21.82026,32.35957 -28.03096,50.92011 -1.62789,4.86491 -4.916124,17.01725 -4.916124,18.16853 0,0.17025 7.573874,0.39227 16.830824,0.49337 18.32975,0.20021 19.38698,0.32066 24.94818,2.84222 9.04793,4.10253 15.79325,12.22768 18.11076,21.81552 0.90696,3.75222 0.90696,10.59576 0,14.34798 -2.31017,9.55745 -9.066,17.71442 -18.04263,21.78462 -5.63734,2.5561 -6.65105,2.67252 -25.01631,2.87312 -9.25695,0.1011 -16.830824,0.32312 -16.830824,0.49337 0,1.15128 3.288234,13.30362 4.916124,18.16853 6.2107,18.56054 15.31488,35.09891 28.03096,50.92011 4.65858,5.79614 17.38685,18.40947 23.44153,23.22985 15.39078,12.25322 32.20797,21.42668 50.47784,27.53473 3.9587,1.32349 14.66268,4.19537 17.27425,4.63469 0.84253,0.14173 0.86198,-0.16145 1.10532,-17.22884 0.20606,-14.45318 0.36787,-17.77756 0.96271,-19.7795 z"
   id="path982" /><path
   style="fill:#448aff;fill-opacity:1;stroke-width:0.428811"
   d="m 248.49581,319.41592 c -28.72623,-4.20858 -50.35583,-24.87163 -55.385,-52.91006 -0.97974,-5.46224 -0.97974,-15.54948 0,-21.01172 4.13352,-23.04505 20.10153,-41.9576 41.92871,-49.66048 7.4421,-2.62634 11.70905,-3.29765 20.96048,-3.29765 7.18791,0 8.98671,0.13992 12.81308,0.99664 26.14021,5.85277 45.38816,25.82541 50.07611,51.96149 0.97974,5.46224 0.97974,15.54948 0,21.01172 -4.09593,22.83545 -19.89261,41.70508 -41.44865,49.5117 -6.79947,2.46246 -11.58886,3.28972 -19.9397,3.44412 -4.24523,0.0785 -8.29749,0.0579 -9.00503,-0.0458 z"
   id="path1058" /></svg>
