<?xml version="1.0" encoding="UTF-8" standalone="no"?>
<!-- Generator: Adobe Illustrator 18.0.0, SVG Export Plug-In . SVG Version: 6.00 Build 0)  -->

<svg
   version="1.1"
   id="Capa_1"
   x="0px"
   y="0px"
   viewBox="0 0 512 512"
   style="enable-background:new 0 0 512 512;"
   xml:space="preserve"
   sodipodi:docname="target2.svg"
   inkscape:version="1.1.1 (1:1.1+202109281949+c3084ef5ed)"
   xmlns:inkscape="http://www.inkscape.org/namespaces/inkscape"
   xmlns:sodipodi="http://sodipodi.sourceforge.net/DTD/sodipodi-0.dtd"
   xmlns="http://www.w3.org/2000/svg"
   xmlns:svg="http://www.w3.org/2000/svg"><defs
   id="defs920" /><sodipodi:namedview
   id="namedview918"
   pagecolor="#ffffff"
   bordercolor="#666666"
   borderopacity="1.0"
   inkscape:pageshadow="2"
   inkscape:pageopacity="0.0"
   inkscape:pagecheckerboard="0"
   showgrid="false"
   inkscape:zoom="3.7382812"
   inkscape:cx="256"
   inkscape:cy="256"
   inkscape:window-width="3840"
   inkscape:window-height="2123"
   inkscape:window-x="0"
   inkscape:window-y="0"
   inkscape:window-maximized="1"
   inkscape:current-layer="Capa_1" />
<g
   id="g885">
	<circle
   cx="256"
   cy="256"
   r="64"
   id="circle881" />
	<path
   d="M480,224h-2.556C463.344,126.109,385.891,48.656,288,34.555V32c0-17.672-14.328-32-32-32s-32,14.328-32,32v2.555   C126.109,48.656,48.656,126.109,34.556,224H32c-17.672,0-32,14.328-32,32s14.328,32,32,32h2.556   C48.656,385.891,126.109,463.344,224,477.445V480c0,17.672,14.328,32,32,32s32-14.328,32-32v-2.555   C385.891,463.344,463.344,385.891,477.444,288H480c17.672,0,32-14.328,32-32S497.672,224,480,224z M288,412.773V384   c0-17.672-14.328-32-32-32s-32,14.328-32,32v28.773C161.4,400.016,111.982,350.594,99.225,288H128c17.672,0,32-14.328,32-32   s-14.328-32-32-32H99.225C111.982,161.406,161.4,111.984,224,99.227V128c0,17.672,14.328,32,32,32s32-14.328,32-32V99.227   c62.6,12.758,112.018,62.18,124.775,124.773H384c-17.672,0-32,14.328-32,32s14.328,32,32,32h28.775   C400.018,350.594,350.6,400.016,288,412.773z"
   id="path883" />
</g>
<g
   id="g887">
</g>
<g
   id="g889">
</g>
<g
   id="g891">
</g>
<g
   id="g893">
</g>
<g
   id="g895">
</g>
<g
   id="g897">
</g>
<g
   id="g899">
</g>
<g
   id="g901">
</g>
<g
   id="g903">
</g>
<g
   id="g905">
</g>
<g
   id="g907">
</g>
<g
   id="g909">
</g>
<g
   id="g911">
</g>
<g
   id="g913">
</g>
<g
   id="g915">
</g>
<path
   style="fill:#c0c0c0;stroke-width:0.267503"
   d="m 251.68318,511.598 c -15.99656,-2.54583 -27.50837,-15.77779 -27.51492,-31.62633 -0.001,-2.48309 -0.0288,-2.60892 -0.60295,-2.73016 -0.33104,-0.0699 -2.22696,-0.3844 -4.21317,-0.69893 -17.23476,-2.72903 -36.86392,-8.59585 -53.63427,-16.03033 -32.91116,-14.58989 -62.09741,-37.1834 -84.761511,-65.61513 -20.706676,-25.97619 -35.685295,-57.07941 -42.937202,-89.15945 -1.056026,-4.6715 -2.74168,-13.54055 -3.110665,-16.36672 l -0.183357,-1.40439 h -1.590456 c -9.048506,0 -17.495264,-3.40678 -23.611586,-9.52309 C 5.6121326,274.5325 2.6536992,269.43026 1.1629039,264.02508 0.47127115,261.51743 0.42510747,261.0153 0.42510747,256 c 0,-5.0153 0.0461637,-5.51743 0.73779643,-8.02508 C 4.4433543,236.081 13.931236,227.19088 25.971731,224.7291 c 1.116637,-0.2283 3.543001,-0.49597 5.39192,-0.59481 l 3.361671,-0.17971 0.311731,-2.16747 c 2.115935,-14.71216 7.30371,-33.67767 13.263267,-48.48797 11.280312,-28.0331 27.150239,-52.28077 48.268123,-73.748877 18.427917,-18.733535 38.211667,-33.051187 61.391847,-44.429771 19.22664,-9.437889 41.01112,-16.416596 61.39185,-19.667025 1.98621,-0.316771 3.88213,-0.631325 4.21317,-0.699009 0.57441,-0.117447 0.60193,-0.241854 0.60295,-2.726116 0.009,-21.600381 21.33991,-37.0556403 41.7896,-30.2784498 12.94443,4.2898877 21.86821,16.6358428 21.87388,30.2622898 v 2.586897 l 0.73563,0.147975 c 0.4046,0.08139 2.54778,0.448262 4.76259,0.815281 36.43956,6.038395 72.19832,21.996769 101.43857,45.269874 7.19815,5.729213 11.44542,9.561629 19.19939,17.324063 9.4182,9.428528 15.8121,16.832068 22.65065,26.227398 19.99916,27.47645 33.35832,58.61456 39.36707,91.75844 0.50679,2.7954 1.00394,5.71453 1.10479,6.48694 l 0.18337,1.40439 h 1.59046 c 13.21322,0 24.39683,6.92309 29.9279,18.52649 0.71833,1.50698 1.63808,3.94373 2.04386,5.41499 0.69165,2.50765 0.73779,3.00978 0.73779,8.02508 0,5.0153 -0.0461,5.51743 -0.73779,8.02508 -3.97448,14.41026 -16.7026,23.94148 -31.97176,23.94148 h -1.59046 l -0.18337,1.40439 c -0.10085,0.77241 -0.598,3.69154 -1.10479,6.48694 -6.55967,36.1828 -22.05216,70.32296 -44.94306,99.03923 -7.07352,8.8736 -17.00493,19.48575 -25.02134,26.73638 -31.68507,28.65833 -71.21232,47.89222 -112.57194,54.77731 -2.28046,0.37961 -4.47733,0.7577 -4.88193,0.84017 l -0.73563,0.14994 v 2.58691 c -0.005,12.85775 -7.83745,24.52041 -19.79412,29.47515 -3.52683,1.46147 -6.91204,2.15388 -11.10136,2.27064 -2.05977,0.0574 -4.42366,-0.004 -5.25308,-0.13562 z M 224.16826,397.1745 c 0.001,-17.25937 0.0951,-18.61125 1.60714,-23.12426 3.77713,-11.274 13.5092,-19.58223 25.1494,-21.46997 15.35727,-2.49053 30.32159,6.61103 35.29981,21.46997 1.51198,4.51301 1.60595,5.86489 1.60713,23.12426 0,12.68891 0.0678,15.71578 0.34765,15.71578 0.19062,0 3.03163,-0.66702 6.31335,-1.48228 38.45072,-9.55209 71.78021,-32.865 94.25511,-65.92838 10.84346,-15.95209 18.94673,-34.58431 23.30857,-53.59444 l 0.89012,-3.87943 -16.47953,-0.11208 c -17.85465,-0.12142 -17.69069,-0.10901 -22.49836,-1.70362 -15.70165,-5.2079 -24.92017,-21.93213 -20.85825,-37.8411 2.70561,-10.59684 10.81925,-19.36995 20.86336,-22.55911 4.99676,-1.58655 4.67292,-1.56231 22.49325,-1.68351 l 16.47953,-0.11207 -0.89916,-3.92607 c -6.45813,-28.19899 -20.79736,-54.52832 -41.01639,-75.31331 -18.67136,-19.19398 -40.53606,-32.87999 -65.58896,-41.05478 -4.33298,-1.41386 -16.27866,-4.590382 -17.26264,-4.590382 -0.27984,0 -0.34679,3.026872 -0.34765,15.715782 0,12.85227 -0.0759,16.17747 -0.41201,18.2497 -2.17961,13.43995 -12.90459,24.16492 -26.34453,26.34452 -15.35727,2.49055 -30.3216,-6.61102 -35.2998,-21.46995 -1.512,-4.51301 -1.60595,-5.8649 -1.60714,-23.12427 -8e-4,-12.68891 -0.0678,-15.715782 -0.34766,-15.715782 -0.19061,0 -3.03162,0.667028 -6.31334,1.482292 -24.20661,6.01351 -46.28815,17.37888 -65.53129,33.72894 -4.79934,4.07779 -14.56472,13.94707 -18.62612,18.8243 -16.4815,19.79217 -27.79563,42.46395 -33.397239,66.92294 l -0.899152,3.92607 16.479541,0.11207 c 17.82032,0.1212 17.49647,0.097 22.49323,1.68351 8.47988,2.69249 16.1469,9.89165 19.49598,18.30629 6.79553,17.07389 -2.12212,36.33309 -19.49086,42.09392 -4.80767,1.59461 -4.64371,1.5822 -22.49835,1.70362 l -16.479541,0.11208 0.899152,3.92606 c 10.589109,46.23657 41.775139,85.84974 84.405849,107.21421 10.94684,5.48603 20.58246,9.06497 32.71991,12.15313 3.38391,0.86098 6.36322,1.5712 6.62069,1.57827 0.44066,0.012 0.46819,-0.90935 0.4692,-15.70292 z"
   id="path1039" /><path
   style="fill:#c0c0c0;stroke-width:0.267503"
   d="m 248.91118,319.5043 c -19.25192,-2.32139 -35.82727,-12.66729 -46.67004,-29.13021 -1.94884,-2.95899 -4.89473,-8.89381 -6.28901,-12.66993 -2.88744,-7.81998 -4.27505,-17.58491 -3.65981,-25.75489 0.99445,-13.20575 5.21313,-24.3628 13.23588,-35.00465 2.26259,-3.00124 8.90058,-9.55026 12.08192,-11.91998 8.46257,-6.30362 17.50522,-10.17968 28.09103,-12.04099 4.0851,-0.71829 12.18667,-0.98396 16.48017,-0.54042 11.64338,1.2028 22.70925,5.5024 32.0314,12.44567 3.32911,2.47956 9.94361,8.98435 12.25908,12.05572 5.39897,7.16151 9.27177,15.02419 11.29961,22.9408 2.77823,10.8461 2.77882,21.26174 0.002,32.15355 -2.04546,8.02255 -5.87036,15.81233 -11.30142,23.01641 -2.26259,3.00124 -8.90058,9.55026 -12.08192,11.91998 -8.43857,6.28575 -17.47807,10.16222 -28.09103,12.04649 -3.68643,0.6545 -13.6647,0.93137 -17.38767,0.48245 z"
   id="path1078" /></svg>
