<?xml version="1.0" encoding="UTF-8" standalone="no"?>
<!-- Generator: Adobe Illustrator 17.1.0, SVG Export Plug-In . SVG Version: 6.00 Build 0)  -->

<svg
   version="1.1"
   id="Capa_1"
   x="0px"
   y="0px"
   viewBox="0 0 294 294"
   style="enable-background:new 0 0 294 294;"
   xml:space="preserve"
   sodipodi:docname="target.svg"
   inkscape:version="1.1.1 (1:1.1+202109281949+c3084ef5ed)"
   xmlns:inkscape="http://www.inkscape.org/namespaces/inkscape"
   xmlns:sodipodi="http://sodipodi.sourceforge.net/DTD/sodipodi-0.dtd"
   xmlns="http://www.w3.org/2000/svg"
   xmlns:svg="http://www.w3.org/2000/svg"><defs
   id="defs912" /><sodipodi:namedview
   id="namedview910"
   pagecolor="#ffffff"
   bordercolor="#666666"
   borderopacity="1.0"
   inkscape:pageshadow="2"
   inkscape:pageopacity="0.0"
   inkscape:pagecheckerboard="0"
   showgrid="false"
   inkscape:zoom="2.9693878"
   inkscape:cx="146.83161"
   inkscape:cy="146.83161"
   inkscape:window-width="3840"
   inkscape:window-height="2123"
   inkscape:window-x="0"
   inkscape:window-y="0"
   inkscape:window-maximized="1"
   inkscape:current-layer="Capa_1" />
<path
   d="M279,132h-3.333V32.917c0-8.284-5.924-14.917-14.208-14.917h-99.792v-3c0-8.284-6.716-15-15-15s-15,6.716-15,15v3H32.792  c-8.284,0-15.125,6.633-15.125,14.917V132H15c-8.284,0-15,6.716-15,15s6.716,15,15,15h2.667v99.583  c0,8.284,6.841,15.417,15.125,15.417h98.875v2c0,8.284,6.716,15,15,15s15-6.716,15-15v-2h99.792c8.284,0,14.208-7.133,14.208-15.417  V162H279c8.284,0,15-6.716,15-15S287.284,132,279,132z M245.667,48v84H229c-0.657,0-1.3,0.057-1.935,0.139  c-6.226-32.844-32.5-58.718-65.462-64.604c0.141-0.826,0.064-1.669,0.064-2.534V48H245.667z M147.5,198.25  c-28.121,0-51-22.879-51-51s22.879-51,51-51s51,22.879,51,51S175.621,198.25,147.5,198.25z M47.667,48h84v17  c0,0.926,0.263,1.829,0.423,2.709C99.634,73.917,74.171,99.545,67.96,132H47.667V48z M47.667,247v-85H67.87  c6.027,32.605,31.797,58.42,63.797,64.745V247H47.667z M245.667,247h-84v-20.076c33-5.995,59.273-32.052,65.318-65.05  c0.607,0.075,1.387,0.125,2.015,0.125h16.667V247z"
   id="path877" />
<g
   id="g879">
</g>
<g
   id="g881">
</g>
<g
   id="g883">
</g>
<g
   id="g885">
</g>
<g
   id="g887">
</g>
<g
   id="g889">
</g>
<g
   id="g891">
</g>
<g
   id="g893">
</g>
<g
   id="g895">
</g>
<g
   id="g897">
</g>
<g
   id="g899">
</g>
<g
   id="g901">
</g>
<g
   id="g903">
</g>
<g
   id="g905">
</g>
<g
   id="g907">
</g>
<path
   style="fill:#448aff;stroke-width:0.33677"
   d="m 143.06414,293.33664 c -2.729,-0.75162 -4.75495,-1.92874 -6.76614,-3.93128 -2.58464,-2.57352 -3.85345,-5.29724 -4.35133,-9.34092 l -0.37815,-3.07131 -49.029967,-0.011 c -26.966478,-0.006 -50.075468,-0.14572 -51.353309,-0.31034 -6.103414,-0.78632 -11.190002,-5.38273 -12.874667,-11.63397 -0.370995,-1.37664 -0.454515,-10.94622 -0.457783,-52.45189 l -0.004,-50.76804 h -2.286633 c -6.222241,0 -11.3759101,-3.22006 -14.0139049,-8.75601 C 0.56933487,151.00754 0.50515464,150.63456 0.50515464,147 c 0,-3.63456 0.0641802,-4.00754 1.04310446,-6.06186 2.6379948,-5.53595 7.7916639,-8.75601 14.0139049,-8.75601 h 2.286633 V 81.737422 c 0,-44.363145 0.06262,-50.686693 0.519415,-52.45189 1.472221,-5.689126 6.446973,-10.05212 12.446221,-10.915676 1.496172,-0.215365 20.324452,-0.341769 51.538207,-0.346003 l 49.18082,-0.0067 0.37027,-3.522167 c 0.47571,-4.5250803 1.64556,-7.1618434 4.39427,-9.9043899 6.04366,-6.0301055 15.51964,-5.8243764 21.23023,0.4609213 2.3533,2.5901289 3.45482,5.2611116 3.8945,9.4434686 l 0.37027,3.522167 49.68598,0.0068 c 27.73793,0.0038 50.61449,0.141068 51.78796,0.310793 5.66158,0.81886 10.21579,4.962122 11.69449,10.639226 0.45272,1.738115 0.51623,8.209199 0.51623,52.595063 v 50.613095 h 2.62341 c 6.5736,0 11.65592,3.10097 14.35067,8.75601 0.97892,2.05432 1.04311,2.4273 1.04311,6.06186 0,3.63456 -0.0642,4.00754 -1.04311,6.06186 -2.69475,5.65504 -7.77707,8.75601 -14.35067,8.75601 h -2.62341 v 50.66727 c 0,35.68907 -0.11001,51.19484 -0.37215,52.45189 -1.2992,6.23006 -6.02438,10.84957 -11.97824,11.71036 -1.42833,0.2065 -21.06016,0.33492 -51.83421,0.33907 l -49.53512,0.007 -0.37815,3.07131 c -0.4444,3.60934 -1.63864,6.42257 -3.71927,8.76135 -3.60507,4.05236 -9.56909,5.89548 -14.59638,4.51085 z m -11.38716,-56.52091 v -10.20488 l -4.15203,-1.04982 C 99.005123,218.34992 76.043278,195.0827 69.019666,166.27767 l -1.087447,-4.4598 H 57.708378 47.484536 v 42.60137 42.60138 h 42.09622 42.096224 z m 114.16494,-32.39649 v -42.60137 h -9.5597 -9.55969 l -0.23927,1.59966 c -0.3664,2.44964 -2.36849,9.14791 -3.92161,13.12029 -6.45985,16.52216 -18.8663,31.03065 -34.41681,40.24809 -6.91091,4.09638 -15.33749,7.46759 -22.91029,9.16569 l -3.41668,0.76614 -0.0891,10.15144 -0.0891,10.15144 h 42.10116 42.10115 z m -93.965,-6.24144 c 17.28509,-1.5298 32.38892,-11.49339 40.82386,-26.93038 5.33887,-9.77078 7.18831,-22.33796 4.97512,-33.80645 -3.44675,-17.86066 -16.54618,-32.88035 -33.68434,-38.622161 -6.12474,-2.051976 -8.90351,-2.467947 -16.48641,-2.467947 -5.84554,0 -7.40752,0.111862 -10.19015,0.729773 -20.91584,4.644575 -36.38197,20.474295 -40.21788,41.163355 -0.897441,4.84037 -0.801646,14.1626 0.193798,18.8591 2.238313,10.56039 6.679572,18.80219 14.163272,26.28329 9.51615,9.51284 21.38278,14.57453 35.37743,15.0902 0.64828,0.0239 2.91867,-0.11056 5.0453,-0.29878 z M 69.201946,127.63574 c 7.474881,-29.363212 30.148423,-51.851404 59.452714,-58.966695 3.14108,-0.76268 3.69096,-0.991538 3.47734,-1.447282 -0.13956,-0.297745 -0.31152,-4.746763 -0.38214,-9.886711 l -0.12839,-9.345361 H 89.553003 47.484536 v 42.101086 42.101083 l 10.30146,-0.0891 10.301457,-0.0891 z M 245.84192,90.085911 V 47.989691 H 203.7457 161.64948 V 57.3917 c 0,5.171106 -0.0804,9.611459 -0.1786,9.867451 -0.13513,0.352137 0.58057,0.610975 2.93995,1.063263 11.09583,2.127045 25.18865,8.992487 34.45171,16.783457 3.44408,2.896738 8.97787,8.471295 11.62978,11.715435 6.80045,8.319164 13.005,20.889974 15.45835,31.319584 0.41392,1.75963 0.81072,3.38875 0.88179,3.62028 0.0994,0.32368 2.31067,0.42096 9.56934,0.42096 h 9.44012 z"
   id="path1031" /><path
   style="fill:#c0c0c0;stroke-width:0.33677;fill-opacity:1"
   d="m 142.18896,292.85797 c -5.46198,-1.88666 -8.99722,-6.37118 -10.02432,-12.71603 -0.25885,-1.599 -0.51235,-2.94521 -0.56334,-2.9916 -0.051,-0.0464 -22.52158,-0.18363 -49.934635,-0.305 -33.944488,-0.15029 -50.378999,-0.33784 -51.525772,-0.58801 -3.810017,-0.83116 -7.224024,-3.2042 -9.463326,-6.57785 -2.577571,-3.88328 -2.381605,0.30401 -2.652286,-56.67261 -0.133312,-28.06134 -0.265444,-51.0423 -0.293627,-51.06879 -0.02818,-0.0265 -1.507071,-0.20456 -3.286417,-0.39569 C 8.4111893,160.89421 4.2897923,158.10094 1.8471918,153.00408 0.7356156,150.68461 0.67353951,150.36705 0.67353951,147 c 0,-3.36705 0.0620761,-3.68462 1.17365229,-6.00409 1.4731632,-3.07397 3.967787,-5.62459 6.9246786,-7.08009 1.7208696,-0.84709 2.9406256,-1.1644 5.5567006,-1.44553 1.843513,-0.19811 3.370455,-0.38188 3.393205,-0.40837 0.02275,-0.0265 0.147259,-22.78013 0.276688,-50.563639 0.138209,-29.66824 0.367268,-51.116501 0.55504,-51.971854 1.081489,-4.926496 5.474599,-9.236426 10.838863,-10.63364 1.4621,-0.380828 10.960267,-0.511706 52.036586,-0.717027 27.636407,-0.138142 50.248017,-0.272196 50.248017,-0.297899 0,-1.1369 0.84549,-6.217971 1.23769,-7.437999 1.19113,-3.7053405 4.25554,-7.0313474 8.19187,-8.8911809 1.64461,-0.77704679 2.26746,-0.87514159 5.5567,-0.87514159 3.4711,0 3.84817,0.0680698 5.98569,1.08056339 2.95136,1.3979942 5.66718,4.0909565 7.00171,6.9427763 0.9298,1.9869478 1.30721,3.5739288 1.8361,7.7206468 l 0.20402,1.599656 23.13229,0.0424 c 12.72275,0.02332 35.86218,0.136977 51.42094,0.252577 l 28.28866,0.210182 2.26422,1.072605 c 1.24531,0.589933 3.02578,1.784965 3.95659,2.655628 2.07191,1.938027 3.92846,5.47798 4.18005,7.970263 0.18851,1.867315 0.54338,57.65771 0.54387,85.503943 l 2.9e-4,16.3777 2.94673,0.24532 c 7.02454,0.58482 11.04089,3.13802 13.76304,8.74923 1.07398,2.2138 1.13903,2.55091 1.13903,5.90298 0,3.35205 -0.065,3.68915 -1.13903,5.90297 -2.72518,5.61745 -6.73181,8.16023 -13.76304,8.73463 l -2.94673,0.24073 -2.8e-4,15.2086 c -3.3e-4,27.11881 -0.36019,85.54583 -0.53754,87.31504 -0.52094,5.19679 -5.61264,10.71917 -10.95208,11.87847 -0.86752,0.18836 -22.2579,0.42002 -51.90029,0.56209 l -50.42456,0.24168 -0.16961,1.04896 c -0.66613,4.11962 -0.96944,5.30388 -1.82861,7.13991 -1.73497,3.70753 -4.78101,6.32589 -8.82247,7.58373 -2.62879,0.81817 -6.28655,0.81866 -8.65326,10e-4 z m -10.51199,-56.1194 c 0,-7.92975 -0.0963,-10.31267 -0.42096,-10.41589 -0.23153,-0.0736 -2.39226,-0.66013 -4.80162,-1.30337 -21.44451,-5.7252 -40.405124,-21.18251 -50.662494,-41.30168 -3.151798,-6.18206 -5.259849,-12.0149 -7.184535,-19.87914 l -0.453313,-1.85224 -10.334756,-0.0891 -10.334757,-0.0891 v 42.60624 42.60624 h 42.09622 42.096215 z m 114.16495,-32.3245 v -42.60653 l -9.67445,0.0894 -9.67445,0.0894 -0.27658,1.68385 c -0.40625,2.47337 -2.47763,9.27154 -4.00188,13.13402 -7.13551,18.08145 -21.86938,33.96543 -39.51697,42.60162 -5.9282,2.90108 -10.15317,4.46115 -16.24889,5.99991 l -4.79922,1.21149 v 9.66904 c 0,5.31797 -0.092,9.90875 -0.20441,10.20174 -0.18574,0.484 3.66193,0.53269 42.09622,0.53269 h 42.30063 z m -89.09062,-6.7296 c 18.3294,-3.35888 33.9572,-17.01197 39.52623,-34.53174 1.844,-5.80107 2.23147,-8.56714 2.23912,-15.98435 0.007,-7.24148 -0.43616,-10.26459 -2.38777,-16.27135 -1.30752,-4.02438 -4.62149,-10.38493 -7.23499,-13.88625 -6.90389,-9.24915 -15.427,-15.34724 -26.25968,-18.7882 -5.1546,-1.637341 -7.23005,-1.898338 -15.12906,-1.902561 -8.00746,-0.0043 -9.82894,0.23911 -15.49141,2.069999 -8.10644,2.621122 -14.64269,6.631912 -20.73306,12.722282 -7.4009,7.4009 -11.999828,15.86925 -14.185794,26.12137 -0.868765,4.0745 -0.862154,15.76401 0.01125,19.86136 2.287206,10.72999 6.464854,18.42936 14.173304,26.12124 8.49441,8.47616 17.08977,12.91058 28.69138,14.80213 3.77469,0.61543 12.55308,0.44074 16.78049,-0.33393 z M 69.362459,127.88831 c 3.70016,-14.45933 10.88354,-27.15065 21.213888,-37.479893 2.323388,-2.323136 5.512483,-5.221076 7.086882,-6.439863 8.534671,-6.606941 18.161921,-11.516158 27.951891,-14.25349 1.75962,-0.492001 3.96289,-1.105784 4.89615,-1.363961 l 1.69683,-0.469414 -0.10035,-5.4838 c -0.0552,-3.01609 -0.19023,-7.49179 -0.30007,-9.946 L 131.60797,47.98969 H 89.546256 47.484535 V 90.085909 132.18213 H 57.874101 68.263667 Z M 245.84192,90.085909 V 47.98969 h -42.04259 -42.04259 l -0.22119,7.324742 c -0.12165,4.028608 -0.22156,8.484412 -0.22201,9.901785 l -6.8e-4,2.57704 3.95705,0.918543 c 11.63548,2.70092 24.68413,9.202099 33.59278,16.736797 9.31605,7.879263 15.47171,15.714383 20.70892,26.358963 3.05237,6.20391 4.63396,10.32199 5.885,15.32302 0.48651,1.94485 1.02572,3.87706 1.19824,4.29382 l 0.31368,0.75773 h 9.43677 9.43677 V 90.085909 Z"
   id="path961" /></svg>
