<?xml version="1.0" encoding="UTF-8" standalone="no"?>
<!-- Generator: Adobe Illustrator 18.0.0, SVG Export Plug-In . SVG Version: 6.00 Build 0)  -->

<svg
   version="1.1"
   id="Capa_1"
   x="0px"
   y="0px"
   viewBox="0 0 512 512"
   style="enable-background:new 0 0 512 512;"
   xml:space="preserve"
   sodipodi:docname="target2.svg"
   inkscape:version="1.1.1 (1:1.1+202109281949+c3084ef5ed)"
   xmlns:inkscape="http://www.inkscape.org/namespaces/inkscape"
   xmlns:sodipodi="http://sodipodi.sourceforge.net/DTD/sodipodi-0.dtd"
   xmlns:xlink="http://www.w3.org/1999/xlink"
   xmlns="http://www.w3.org/2000/svg"
   xmlns:svg="http://www.w3.org/2000/svg"><defs
   id="defs920"><linearGradient
     inkscape:collect="always"
     id="linearGradient1155"><stop
       style="stop-color:#000000;stop-opacity:1;"
       offset="0"
       id="stop1151" /><stop
       style="stop-color:#000000;stop-opacity:0;"
       offset="1"
       id="stop1153" /></linearGradient><linearGradient
     inkscape:collect="always"
     xlink:href="#linearGradient1155"
     id="linearGradient1157"
     x1="0.42650857"
     y1="256.00221"
     x2="511.465"
     y2="256.00221"
     gradientUnits="userSpaceOnUse" /></defs><sodipodi:namedview
   id="namedview918"
   pagecolor="#ffffff"
   bordercolor="#666666"
   borderopacity="1.0"
   inkscape:pageshadow="2"
   inkscape:pageopacity="0.0"
   inkscape:pagecheckerboard="0"
   showgrid="false"
   inkscape:zoom="3.7382812"
   inkscape:cx="255.86625"
   inkscape:cy="255.7325"
   inkscape:window-width="3840"
   inkscape:window-height="2123"
   inkscape:window-x="0"
   inkscape:window-y="0"
   inkscape:window-maximized="1"
   inkscape:current-layer="Capa_1" />
<g
   id="g885">
	<circle
   cx="256"
   cy="256"
   r="64"
   id="circle881" />
	<path
   d="M480,224h-2.556C463.344,126.109,385.891,48.656,288,34.555V32c0-17.672-14.328-32-32-32s-32,14.328-32,32v2.555   C126.109,48.656,48.656,126.109,34.556,224H32c-17.672,0-32,14.328-32,32s14.328,32,32,32h2.556   C48.656,385.891,126.109,463.344,224,477.445V480c0,17.672,14.328,32,32,32s32-14.328,32-32v-2.555   C385.891,463.344,463.344,385.891,477.444,288H480c17.672,0,32-14.328,32-32S497.672,224,480,224z M288,412.773V384   c0-17.672-14.328-32-32-32s-32,14.328-32,32v28.773C161.4,400.016,111.982,350.594,99.225,288H128c17.672,0,32-14.328,32-32   s-14.328-32-32-32H99.225C111.982,161.406,161.4,111.984,224,99.227V128c0,17.672,14.328,32,32,32s32-14.328,32-32V99.227   c62.6,12.758,112.018,62.18,124.775,124.773H384c-17.672,0-32,14.328-32,32s14.328,32,32,32h28.775   C400.018,350.594,350.6,400.016,288,412.773z"
   id="path883" />
</g>
<g
   id="g887">
</g>
<g
   id="g889">
</g>
<g
   id="g891">
</g>
<g
   id="g893">
</g>
<g
   id="g895">
</g>
<g
   id="g897">
</g>
<g
   id="g899">
</g>
<g
   id="g901">
</g>
<g
   id="g903">
</g>
<g
   id="g905">
</g>
<g
   id="g907">
</g>
<g
   id="g909">
</g>
<g
   id="g911">
</g>
<g
   id="g913">
</g>
<g
   id="g915">
</g>
<path
   style="fill:#c0c0c0;stroke-width:0.267503"
   d="m 251.68318,511.598 c -15.99656,-2.54583 -27.50837,-15.77779 -27.51492,-31.62633 -0.001,-2.48309 -0.0288,-2.60892 -0.60295,-2.73016 -0.33104,-0.0699 -2.22696,-0.3844 -4.21317,-0.69893 -17.23476,-2.72903 -36.86392,-8.59585 -53.63427,-16.03033 -32.91116,-14.58989 -62.09741,-37.1834 -84.761511,-65.61513 -20.706676,-25.97619 -35.685295,-57.07941 -42.937202,-89.15945 -1.056026,-4.6715 -2.74168,-13.54055 -3.110665,-16.36672 l -0.183357,-1.40439 h -1.590456 c -9.048506,0 -17.495264,-3.40678 -23.611586,-9.52309 C 5.6121326,274.5325 2.6536992,269.43026 1.1629039,264.02508 0.47127115,261.51743 0.42510747,261.0153 0.42510747,256 c 0,-5.0153 0.0461637,-5.51743 0.73779643,-8.02508 C 4.4433543,236.081 13.931236,227.19088 25.971731,224.7291 c 1.116637,-0.2283 3.543001,-0.49597 5.39192,-0.59481 l 3.361671,-0.17971 0.311731,-2.16747 c 2.115935,-14.71216 7.30371,-33.67767 13.263267,-48.48797 11.280312,-28.0331 27.150239,-52.28077 48.268123,-73.748877 18.427917,-18.733535 38.211667,-33.051187 61.391847,-44.429771 19.22664,-9.437889 41.01112,-16.416596 61.39185,-19.667025 1.98621,-0.316771 3.88213,-0.631325 4.21317,-0.699009 0.57441,-0.117447 0.60193,-0.241854 0.60295,-2.726116 0.009,-21.600381 21.33991,-37.0556403 41.7896,-30.2784498 12.94443,4.2898877 21.86821,16.6358428 21.87388,30.2622898 v 2.586897 l 0.73563,0.147975 c 0.4046,0.08139 2.54778,0.448262 4.76259,0.815281 36.43956,6.038395 72.19832,21.996769 101.43857,45.269874 7.19815,5.729213 11.44542,9.561629 19.19939,17.324063 9.4182,9.428528 15.8121,16.832068 22.65065,26.227398 19.99916,27.47645 33.35832,58.61456 39.36707,91.75844 0.50679,2.7954 1.00394,5.71453 1.10479,6.48694 l 0.18337,1.40439 h 1.59046 c 13.21322,0 24.39683,6.92309 29.9279,18.52649 0.71833,1.50698 1.63808,3.94373 2.04386,5.41499 0.69165,2.50765 0.73779,3.00978 0.73779,8.02508 0,5.0153 -0.0461,5.51743 -0.73779,8.02508 -3.97448,14.41026 -16.7026,23.94148 -31.97176,23.94148 h -1.59046 l -0.18337,1.40439 c -0.10085,0.77241 -0.598,3.69154 -1.10479,6.48694 -6.55967,36.1828 -22.05216,70.32296 -44.94306,99.03923 -7.07352,8.8736 -17.00493,19.48575 -25.02134,26.73638 -31.68507,28.65833 -71.21232,47.89222 -112.57194,54.77731 -2.28046,0.37961 -4.47733,0.7577 -4.88193,0.84017 l -0.73563,0.14994 v 2.58691 c -0.005,12.85775 -7.83745,24.52041 -19.79412,29.47515 -3.52683,1.46147 -6.91204,2.15388 -11.10136,2.27064 -2.05977,0.0574 -4.42366,-0.004 -5.25308,-0.13562 z M 224.16826,397.1745 c 0.001,-17.25937 0.0951,-18.61125 1.60714,-23.12426 3.77713,-11.274 13.5092,-19.58223 25.1494,-21.46997 15.35727,-2.49053 30.32159,6.61103 35.29981,21.46997 1.51198,4.51301 1.60595,5.86489 1.60713,23.12426 0,12.68891 0.0678,15.71578 0.34765,15.71578 0.19062,0 3.03163,-0.66702 6.31335,-1.48228 38.45072,-9.55209 71.78021,-32.865 94.25511,-65.92838 10.84346,-15.95209 18.94673,-34.58431 23.30857,-53.59444 l 0.89012,-3.87943 -16.47953,-0.11208 c -17.85465,-0.12142 -17.69069,-0.10901 -22.49836,-1.70362 -15.70165,-5.2079 -24.92017,-21.93213 -20.85825,-37.8411 2.70561,-10.59684 10.81925,-19.36995 20.86336,-22.55911 4.99676,-1.58655 4.67292,-1.56231 22.49325,-1.68351 l 16.47953,-0.11207 -0.89916,-3.92607 c -6.45813,-28.19899 -20.79736,-54.52832 -41.01639,-75.31331 -18.67136,-19.19398 -40.53606,-32.87999 -65.58896,-41.05478 -4.33298,-1.41386 -16.27866,-4.590382 -17.26264,-4.590382 -0.27984,0 -0.34679,3.026872 -0.34765,15.715782 0,12.85227 -0.0759,16.17747 -0.41201,18.2497 -2.17961,13.43995 -12.90459,24.16492 -26.34453,26.34452 -15.35727,2.49055 -30.3216,-6.61102 -35.2998,-21.46995 -1.512,-4.51301 -1.60595,-5.8649 -1.60714,-23.12427 -8e-4,-12.68891 -0.0678,-15.715782 -0.34766,-15.715782 -0.19061,0 -3.03162,0.667028 -6.31334,1.482292 -24.20661,6.01351 -46.28815,17.37888 -65.53129,33.72894 -4.79934,4.07779 -14.56472,13.94707 -18.62612,18.8243 -16.4815,19.79217 -27.79563,42.46395 -33.397239,66.92294 l -0.899152,3.92607 16.479541,0.11207 c 17.82032,0.1212 17.49647,0.097 22.49323,1.68351 8.47988,2.69249 16.1469,9.89165 19.49598,18.30629 6.79553,17.07389 -2.12212,36.33309 -19.49086,42.09392 -4.80767,1.59461 -4.64371,1.5822 -22.49835,1.70362 l -16.479541,0.11208 0.899152,3.92606 c 10.589109,46.23657 41.775139,85.84974 84.405849,107.21421 10.94684,5.48603 20.58246,9.06497 32.71991,12.15313 3.38391,0.86098 6.36322,1.5712 6.62069,1.57827 0.44066,0.012 0.46819,-0.90935 0.4692,-15.70292 z"
   id="path1039" /><path
   style="fill:#c0c0c0;stroke-width:0.267503"
   d="m 248.91118,319.5043 c -19.25192,-2.32139 -35.82727,-12.66729 -46.67004,-29.13021 -1.94884,-2.95899 -4.89473,-8.89381 -6.28901,-12.66993 -2.88744,-7.81998 -4.27505,-17.58491 -3.65981,-25.75489 0.99445,-13.20575 5.21313,-24.3628 13.23588,-35.00465 2.26259,-3.00124 8.90058,-9.55026 12.08192,-11.91998 8.46257,-6.30362 17.50522,-10.17968 28.09103,-12.04099 4.0851,-0.71829 12.18667,-0.98396 16.48017,-0.54042 11.64338,1.2028 22.70925,5.5024 32.0314,12.44567 3.32911,2.47956 9.94361,8.98435 12.25908,12.05572 5.39897,7.16151 9.27177,15.02419 11.29961,22.9408 2.77823,10.8461 2.77882,21.26174 0.002,32.15355 -2.04546,8.02255 -5.87036,15.81233 -11.30142,23.01641 -2.26259,3.00124 -8.90058,9.55026 -12.08192,11.91998 -8.43857,6.28575 -17.47807,10.16222 -28.09103,12.04649 -3.68643,0.6545 -13.6647,0.93137 -17.38767,0.48245 z"
   id="path1078" /><path
   style="fill:#ffffff;stroke-width:0.267503;fill-opacity:1;stroke:url(#linearGradient1157);stroke-opacity:1"
   d="m 249.71369,511.06519 c -4.58866,-1.04735 -9.46836,-3.31444 -12.97387,-6.02758 -2.05515,-1.5906 -5.5831,-5.29829 -6.89402,-7.2452 -3.47644,-5.16312 -5.14882,-10.44178 -5.56282,-17.55847 -0.092,-1.58167 -0.25592,-2.93055 -0.36424,-2.9975 -0.10833,-0.067 -2.41399,-0.4951 -5.12368,-0.95146 -34.69429,-5.843 -67.93322,-20.10164 -96.14511,-41.24382 C 101.96347,419.53861 83.950284,400.54384 69.992897,379.51468 52.200929,352.70811 40.5698,323.13441 35.460543,291.7116 l -0.587185,-3.61128 -1.988403,-0.20028 c -5.680458,-0.57219 -7.018826,-0.77621 -9.220791,-1.40575 -3.021124,-0.86374 -8.280781,-3.44215 -10.565007,-5.17923 -5.2755005,-4.01182 -9.3113328,-9.79346 -11.5089626,-16.48747 -0.83819597,-2.55316 -0.88354384,-2.9032 -0.99540546,-7.68353 -0.12720699,-5.43611 0.0574083,-7.10123 1.16489436,-10.50665 1.54117,-4.73896 4.1690925,-9.0612 7.6930944,-12.65311 5.8574183,-5.9703 12.6380133,-9.01385 21.5616383,-9.67817 1.977471,-0.14722 3.673156,-0.35908 3.768195,-0.4708 0.09504,-0.11173 0.380627,-1.64766 0.634636,-3.41317 0.97287,-6.76197 3.045761,-16.00712 5.660283,-25.24504 11.989588,-42.36297 35.906695,-79.57909 70.06981,-109.031846 30.44524,-26.247506 68.24672,-43.87443 108.47231,-50.580903 2.28046,-0.380201 4.22541,-0.773457 4.32211,-0.873904 0.0967,-0.100447 0.30207,-1.928084 0.45636,-4.061417 0.35105,-4.853728 1.19099,-8.238195 2.96748,-11.957112 3.83365,-8.025405 10.56665,-13.9657118 19.00431,-16.7668975 3.77722,-1.25398386 6.43631,-1.59931724 11.05104,-1.43518641 4.63063,0.16469668 7.82942,0.93729811 11.88538,2.87066961 4.92727,2.3487158 8.84059,5.5587894 12.09767,9.9236983 3.96969,5.319875 5.71576,10.52198 6.36678,18.968693 l 0.19579,2.540125 2.00627,0.342283 c 14.50524,2.474685 24.46867,4.904778 36.38268,8.873784 26.1605,8.71505 51.10672,22.596355 72.35713,40.263057 10.29112,8.555603 23.75538,22.349636 32.3259,33.117626 23.17249,29.11392 39.00945,64.54315 45.19598,101.10909 0.49127,2.90362 0.94595,5.33204 1.01041,5.3965 0.0644,0.0644 1.74145,0.24698 3.72661,0.40562 9.00079,0.71924 15.75125,3.7249 21.46543,9.55753 3.60063,3.67527 6.01281,7.68991 7.90801,13.16154 l 0.98626,2.84737 v 6.01881 c 0,6.73638 -0.19132,7.80041 -2.27051,12.62832 -2.12643,4.93762 -6.75008,10.5426 -11.17139,13.54243 -4.81794,3.26896 -11.78983,5.61464 -16.88781,5.68189 -0.82669,0.011 -2.03281,0.10119 -2.68022,0.20062 l -1.17712,0.18081 -0.74012,4.41379 c -6.46474,38.55301 -23.18892,75.38475 -47.61074,104.85319 -7.24883,8.7468 -18.85532,20.73675 -26.2019,27.0676 -22.87204,19.70978 -48.23062,34.20179 -76.23825,43.56892 -10.78835,3.60816 -20.83618,6.13325 -32.76907,8.23513 l -5.61755,0.98949 -0.21253,2.94065 c -0.44529,6.16166 -1.41076,9.88939 -3.70869,14.31961 -4.63074,8.92766 -13.32281,15.25701 -22.9628,16.72097 -3.51452,0.53372 -8.68541,0.46802 -11.36886,-0.14448 z m -25.48652,-113.2888 c 0.10656,-8.23908 0.31952,-16.27039 0.47326,-17.84737 0.77331,-7.93215 5.5038,-16.01234 12.47614,-21.3106 2.53662,-1.92757 7.68533,-4.42425 10.93211,-5.30118 2.47634,-0.66881 3.06245,-0.72247 7.89132,-0.72247 4.81381,0 5.41935,0.055 7.84778,0.71297 3.179,0.86134 7.46274,2.86378 10.25562,4.79403 6.92664,4.7872 12.20492,13.30055 13.1545,21.21694 0.15881,1.32414 0.36832,9.41944 0.46556,17.98955 l 0.17677,15.58203 h 0.58221 c 1.59338,0 13.02029,-3.1308 19.51502,-5.34682 8.79144,-2.99967 19.5558,-7.87672 27.74965,-12.57262 16.19763,-9.28296 31.30537,-21.98997 43.38028,-36.48685 13.81087,-16.5811 23.95307,-35.41791 30.328,-56.32741 1.41442,-4.63919 3.70756,-13.87277 3.49747,-14.08286 -0.0817,-0.0817 -7.71293,-0.24915 -16.95825,-0.37205 -15.61424,-0.20758 -16.96448,-0.26236 -18.98688,-0.77067 -9.58037,-2.40782 -17.28589,-8.60567 -21.49397,-17.28837 -5.85323,-12.07726 -3.42947,-26.29302 6.12779,-35.94061 4.3371,-4.37811 9.35513,-7.15528 15.80464,-8.74692 1.44537,-0.3567 4.57531,-0.46717 18.54842,-0.65468 9.24532,-0.12406 16.87133,-0.28722 16.94666,-0.36257 0.36956,-0.36954 -2.83341,-12.45477 -5.04378,-19.03086 -16.63982,-49.50568 -57.2794,-88.48384 -107.0908,-102.71269 -6.40792,-1.83045 -11.4046,-3.084591 -12.28947,-3.084591 h -0.68441 l -0.0233,6.353191 c -0.0128,3.49425 -0.11633,11.16823 -0.22997,17.05329 -0.19958,10.33705 -0.23021,10.78939 -0.90338,13.33158 -1.39674,5.27481 -4.44036,10.53593 -8.36636,14.46194 -3.91142,3.91142 -9.13527,6.93931 -14.46194,8.38254 -2.42773,0.65778 -3.03537,0.71305 -7.84778,0.71378 -4.8695,8e-4 -5.39414,-0.0482 -7.89133,-0.73657 -8.89838,-2.4528 -16.26463,-8.45076 -20.37255,-16.58833 -1.5519,-3.07423 -2.63147,-6.42376 -2.98651,-9.26609 -0.15621,-1.25058 -0.36657,-9.34587 -0.46746,-17.98955 L 224.0988,99.109719 h -0.57436 c -0.69914,0 -5.99218,1.280951 -10.56819,2.557581 -21.68051,6.04844 -41.70247,16.55447 -59.54353,31.24394 -3.78563,3.11691 -16.98003,16.26585 -20.16974,20.10026 -13.84068,16.63809 -24.4576,36.19678 -30.54018,56.26164 -1.53484,5.06303 -3.873135,14.43569 -3.65568,14.65315 0.08171,0.0817 7.71292,0.24913 16.95824,0.37203 18.37545,0.24428 18.27718,0.23576 22.93352,1.9884 7.53117,2.83472 14.02522,8.77225 17.55754,16.05289 2.75866,5.68602 3.73714,11.96622 2.81619,18.0753 -1.95903,12.99521 -11.02161,22.98349 -23.95632,26.40335 -2.5344,0.67006 -2.5867,0.67247 -19.35093,0.88939 -9.24532,0.11963 -16.864127,0.27194 -16.93069,0.33852 -0.168173,0.16818 1.03381,5.42017 2.33879,10.21925 10.11658,37.20359 33.98109,70.06883 66.42662,91.48001 9.8644,6.50962 21.39687,12.38288 32.3856,16.49335 6.73349,2.51875 21.55755,6.7359 23.13897,6.5826 l 0.66876,-0.0648 z"
   id="path964" /><path
   style="fill:#ffffff;fill-opacity:1;stroke:#000000;stroke-width:3;stroke-opacity:1;stroke-miterlimit:4;stroke-dasharray:none;stroke-dashoffset:0"
   d="m 248.50993,319.34139 c -0.51494,-0.0577 -2.68171,-0.45367 -4.81505,-0.87999 -11.02442,-2.20305 -21.36214,-7.34396 -29.70576,-14.77257 -13.37192,-11.90546 -21.0024,-28.01356 -21.57893,-45.55355 -0.49709,-15.12318 4.42833,-30.01651 13.79921,-41.72566 1.97081,-2.46258 7.65859,-8.11467 10.34264,-10.27774 8.92375,-7.19166 21.0877,-12.24859 32.18686,-13.38109 4.15115,-0.42356 12.45077,-0.35446 15.78686,0.13144 9.15563,1.33349 18.70167,4.90107 26.11583,9.7601 6.85787,4.49445 13.63352,11.1899 18.06514,17.85133 5.4622,8.21054 8.84488,16.8132 10.33641,26.28704 0.68373,4.34284 0.68173,14.18927 -0.004,18.31439 -0.92866,5.58884 -1.9716,9.49305 -3.71584,13.91014 -7.22233,18.28971 -22.54098,32.37349 -41.412,38.0737 -3.27858,0.99033 -7.87687,1.90355 -10.95783,2.17622 -2.90403,0.25702 -12.41226,0.31379 -14.44383,0.0862 z"
   id="path1159" /><path
   style="fill:#ffffff;fill-opacity:1;stroke:#000000;stroke-width:3;stroke-miterlimit:4;stroke-dasharray:none;stroke-dashoffset:0;stroke-opacity:1"
   d="m 251.2748,511.06765 c -2.03763,-0.28911 -6.69767,-1.8287 -8.9633,-2.96133 -3.35579,-1.67759 -5.97523,-3.65607 -8.94377,-6.75527 -5.57434,-5.81968 -7.89657,-11.20606 -8.70597,-20.19337 -0.17619,-1.95638 -0.44983,-3.7196 -0.60808,-3.91825 -0.16931,-0.21253 -2.54478,-0.76126 -5.77155,-1.33326 C 175.77781,468.37169 137.75345,449.73452 106.06479,420.90421 101.1207,416.4061 92.180529,407.29844 87.957458,402.45769 66.52552,377.89102 50.898279,349.33651 41.619223,317.78725 c -2.139748,-7.27524 -4.923452,-19.81892 -6.053873,-27.27941 -0.178341,-1.17701 -0.459147,-2.27225 -0.624009,-2.43384 -0.164864,-0.1616 -2.179849,-0.49197 -4.477742,-0.73411 -2.406164,-0.25357 -5.185544,-0.72994 -6.553815,-1.1233 -2.852568,-0.82008 -8.283412,-3.43447 -10.444429,-5.0279 -5.10317,-3.76288 -9.7378478,-10.4448 -11.7740274,-16.97486 -0.69246221,-2.22074 -0.72681717,-2.59556 -0.74060741,-8.08008 -0.0130279,-5.18132 0.0446434,-5.95507 0.58191971,-7.80738 2.5717699,-8.86644 8.9655191,-16.65004 16.7683811,-20.41345 4.069395,-1.96272 7.292209,-2.80174 12.904408,-3.3595 1.788274,-0.17772 3.397677,-0.41353 3.576449,-0.52402 0.17982,-0.11114 0.723421,-2.53192 1.216698,-5.41823 3.430858,-20.07506 10.205546,-41.12489 19.218581,-59.71462 11.139178,-22.97497 25.805688,-43.30209 44.598531,-61.811539 17.332142,-17.070779 35.310082,-29.980115 56.487822,-40.561954 20.6349,-10.310605 40.31382,-16.680958 64.73575,-20.955909 1.44285,-0.252565 2.78097,-0.61681 2.97359,-0.809434 0.20602,-0.206019 0.42603,-1.375915 0.53432,-2.841324 0.45343,-6.135564 1.38253,-9.731772 3.64693,-14.115966 5.3407,-10.3403429 16.2414,-17.13166746 27.4979,-17.13166746 4.92138,0 9.11605,0.92392816 13.34683,2.93980506 5.48094,2.6115684 9.76901,6.3007047 13.04712,11.2248334 2.02681,3.044498 3.29585,5.864862 4.12106,9.158919 0.62738,2.504166 1.34247,7.41057 1.35718,9.311762 0.005,0.662069 0.0977,1.335044 0.20584,1.4955 0.1081,0.160453 1.15955,0.441903 2.33656,0.62544 4.26618,0.665249 14.31444,2.715788 19.13935,3.905755 25.21429,6.21859 49.62038,17.091707 71.45819,31.83524 12.68762,8.565888 20.71377,15.226583 32.1991,26.721173 12.27313,12.283036 19.85737,21.330746 27.9077,33.292846 17.86805,26.55041 29.25341,54.69181 35.07162,86.68726 0.6006,3.30287 1.14021,6.05341 1.19908,6.1123 0.0589,0.0589 1.10829,0.21787 2.33196,0.35329 8.82625,0.97679 13.17381,2.32385 17.99089,5.57439 5.86799,3.95967 10.08487,9.62039 12.86147,17.26515 l 0.97157,2.67502 -0.10096,6.42007 -0.10098,6.42006 -0.87249,2.54127 c -2.70865,7.88954 -8.65569,14.98226 -15.42283,18.3941 -4.61432,2.32644 -8.66048,3.45209 -13.77056,3.83098 -2.52415,0.18715 -3.69731,0.38053 -3.89703,0.64233 -0.15716,0.20601 -0.43555,1.37456 -0.61862,2.59684 -1.18349,7.90039 -4.55745,22.30835 -7.23954,30.91522 -7.6663,24.60125 -19.3835,47.64583 -34.37577,67.608 -6.66049,8.8684 -12.42761,15.39322 -22.59862,25.56766 -16.87773,16.88342 -35.1003,29.94892 -57.0174,40.88124 -19.80999,9.88128 -38.62709,16.10093 -60.90005,20.12944 -3.49586,0.6323 -6.42886,1.25167 -6.51781,1.37638 -0.0889,0.12471 -0.24147,1.45177 -0.33895,2.94898 -0.55729,8.55984 -3.04959,14.8335 -8.28964,20.86681 -3.80169,4.37725 -10.3428,8.24499 -16.1741,9.56372 -2.66023,0.60159 -9.12326,0.88659 -11.72737,0.51711 z m -26.99587,-98.51174 c 0.0671,-0.33104 0.192,-6.98401 0.27763,-14.78442 0.17335,-15.79199 0.36991,-19.0594 1.34998,-22.44143 1.71827,-5.92941 5.68832,-11.83258 10.62081,-15.79237 2.6515,-2.12862 8.06288,-4.88842 11.54438,-5.88762 2.19829,-0.63093 2.77446,-0.68037 7.92827,-0.68037 5.13511,0 5.73796,0.0513 7.92828,0.6743 3.35182,0.9534 8.86869,3.75595 11.49512,5.83944 4.84572,3.84402 8.94154,9.92192 10.67723,15.84424 0.96068,3.278 1.13394,6.25244 1.3583,23.31809 l 0.19075,14.51202 h 0.70016 c 2.49155,0 17.99611,-4.54899 25.29698,-7.42207 21.34622,-8.40028 38.4895,-19.43514 54.54095,-35.10715 21.55289,-21.04339 36.24018,-46.73878 43.65088,-76.36703 1.16902,-4.6738 1.44449,-6.13485 1.18667,-6.29417 -0.18463,-0.11412 -4.6241,-0.27885 -9.86547,-0.36605 -5.24136,-0.0872 -13.08085,-0.2633 -17.42108,-0.3913 l -7.89133,-0.23279 -2.90408,-0.97868 c -11.42576,-3.85054 -19.11708,-12.34803 -21.74403,-24.02317 -0.63374,-2.81652 -0.62716,-9.00999 0.0128,-11.99419 2.02922,-9.46333 8.2131,-17.624 16.60819,-21.91729 2.46501,-1.26062 6.33922,-2.59866 8.58047,-2.96343 0.87115,-0.14178 8.98766,-0.38924 18.03671,-0.54991 9.04905,-0.16067 16.54811,-0.38386 16.66456,-0.49597 0.45558,-0.43863 -2.4232,-11.59086 -4.92344,-19.07302 -5.20748,-15.58361 -13.54144,-31.47706 -23.46405,-44.7475 -18.94293,-25.33418 -45.09538,-44.81831 -73.91258,-55.06648 -7.48608,-2.66224 -20.45284,-6.325373 -22.39058,-6.325373 h -0.7657 l -0.19365,14.512013 c -0.24484,18.34812 -0.37557,20.45175 -1.47466,23.73234 -3.39573,10.13554 -10.57742,17.32615 -20.90501,20.93089 l -2.51861,0.87909 -6.55382,-0.004 c -6.48361,-0.004 -6.57817,-0.0119 -8.82758,-0.76366 -8.92048,-2.98121 -15.58231,-8.81836 -19.55454,-17.13385 -2.39858,-5.02121 -2.62883,-6.45827 -2.91798,-18.21157 -0.13755,-5.5908 -0.25349,-13.26479 -0.25765,-17.05329 l -0.008,-6.888193 H 223.74 c -0.38181,0 -2.41595,0.415067 -4.5203,0.92237 -18.65315,4.496783 -35.60194,11.821413 -51.37303,22.201523 -9.54594,6.28288 -14.68246,10.45441 -23.23491,18.8698 -7.50462,7.38435 -11.28225,11.46288 -14.6774,15.84649 -13.8212,17.84509 -23.37536,36.87498 -28.91228,57.5872 -1.917527,7.17298 -2.39904,9.54497 -1.990275,9.80431 0.189716,0.12036 1.247755,0.22266 2.351205,0.22733 8.48026,0.0359 30.22088,0.58529 32.02335,0.80927 2.56793,0.3191 5.13113,1.17992 8.36955,2.81081 11.71547,5.9 18.8547,18.6477 17.40879,31.08492 -1.28073,11.01644 -7.60203,20.14312 -17.35222,25.05308 -2.12453,1.06987 -5.98306,2.43601 -8.00731,2.83507 -0.70296,0.13857 -8.80161,0.38485 -17.99702,0.54728 -9.1954,0.16246 -16.816172,0.3901 -16.935045,0.50588 -0.557746,0.54329 3.312355,14.80731 6.103415,22.49536 6.61167,18.21203 15.89241,34.16335 28.86651,49.61449 3.79779,4.52288 14.04971,14.75063 18.47923,18.43569 12.97537,10.79459 26.19485,18.90759 41.41877,25.41933 7.81806,3.34405 19.64589,7.11921 28.39941,9.06443 1.38514,0.30779 1.99493,0.18661 2.11801,-0.42094 z"
   id="path1235" /></svg>
